#N canvas 613 175 560 265 10;
#X obj -100 -132 cnv 40 552 40 empty empty EzDacStereo 3 12 0 18 -228856
-33289 0;
#X text -97 -110 An abstraction for dac;
#X obj -54 -27 osc~ 220;
#X text -78 91 CICM Libraries | CICM - Université Paris 8 - Labex Arts
H2H;
#X obj -54 -6 EzDacStereo;
#X text -99 -89 EzDacStereo is an abstraction to output two signals
to a stereo output.;
#X connect 2 0 4 0;
