#N canvas 113 369 608 422 10;
#X obj 103 103 c.blackboard @size 85 62 @fontname Helvetica @fontweight
normal @fontslant roman @fontsize 11 @receive (null) @send (null) @chalkmode
0 @bgcolor 0.897178 0.897178 0.897178 1 @bdcolor 0.897178 0.897178
0.897178 1;
#X obj 169 146 c.toggle @size 15 15 @fontname Helvetica @fontweight
normal @fontslant roman @fontsize 11 @receive (null) @send (null) @presetname
(null) @bgcolor 0.75 0.75 0.75 1 @bdcolor 0.5 0.5 0.5 1 @crcolor 0.5
0.5 0.5 1;
#X obj 470 71 loadbang;
#X obj 287 21 inlet~;
#X obj 106 106 c.gain~ @size 78 14 @fontname Helvetica @fontweight
normal @fontslant roman @fontsize 11 @receive (null) @send (null) @presetname
(null) @mode 0 @ramp 20 @bgcolor 0.75 0.75 0.75 1 @bdcolor 0.5 0.5
0.5 1 @kncolor 0.5 0.5 0.5 1;
#X obj 298 223 dac~;
#X obj 106 126 c.meter~ @size 78 14 @fontname Helvetica @fontweight
normal @fontslant roman @fontsize 11 @receive (null) @send (null) @interval
50 @bgcolor 0.75 0.75 0.75 1 @bdcolor 0.5 0.5 0.5 1 @coldcolor 0 0.6
0 0.8 @tepidcolor 0.6 0.73 0 0.8 @warmcolor 0.85 0.85 0 0.8 @hotcolor
1 0.6 0 0.8 @overcolor 1 0 0 0.8;
#X msg 166 320 \; pd dsp \$1;
#X obj 234 238 r pd;
#X obj 278 270 route dsp;
#X msg 269 309 set \$1;
#X obj 399 303 +;
#X msg 395 365 \; pd audio-properties;
#X obj 398 330 sel 2;
#X obj 415 202 > 5;
#X obj 448 202 > 44;
#X obj 495 201 < 63;
#X obj 535 201 < 61;
#X obj 415 168 unpack 0 0;
#X obj 405 276 * 0;
#X obj 455 276 * 0;
#X obj 428 242 t b f;
#X obj 478 242 t b f;
#X obj 478 303 t b f;
#X msg 464 112 1;
#X msg 513 107 0;
#X obj 39 242 cputime;
#X obj 39 186 metro 1000;
#X obj 39 214 t b b;
#X obj 39 302 * 0.1;
#X obj 39 271 int;
#X msg 409 129 0;
#X obj 327 304 sel 0 1;
#X obj 469 145 metro 1000;
#X msg 30 -5 clear \, color rgb 0.5 0.5 0.5 \, text 8 48 DSP : \$1
% \, fill 0 \, width 2 \, rect 4 44 63 61;
#X msg 558 151 \; pd dsp 0;
#X connect 0 0 18 0;
#X connect 1 0 7 0;
#X connect 2 0 24 0;
#X connect 2 0 35 0;
#X connect 3 0 4 0;
#X connect 4 0 5 0;
#X connect 4 0 5 1;
#X connect 4 0 6 0;
#X connect 8 0 9 0;
#X connect 9 0 10 0;
#X connect 9 0 27 0;
#X connect 9 0 32 0;
#X connect 10 0 1 0;
#X connect 11 0 13 0;
#X connect 13 0 12 0;
#X connect 14 0 19 0;
#X connect 15 0 20 0;
#X connect 16 0 21 0;
#X connect 17 0 22 0;
#X connect 18 0 14 0;
#X connect 18 0 16 0;
#X connect 18 1 15 0;
#X connect 18 1 17 0;
#X connect 19 0 11 0;
#X connect 20 0 23 0;
#X connect 21 0 19 0;
#X connect 21 1 19 1;
#X connect 22 0 20 0;
#X connect 22 1 20 1;
#X connect 23 0 11 0;
#X connect 23 1 11 1;
#X connect 24 0 33 0;
#X connect 25 0 33 0;
#X connect 26 0 30 0;
#X connect 27 0 28 0;
#X connect 28 0 26 0;
#X connect 28 1 26 1;
#X connect 29 0 34 0;
#X connect 30 0 29 0;
#X connect 31 0 34 0;
#X connect 32 0 24 0;
#X connect 32 1 25 0;
#X connect 33 0 31 0;
#X connect 34 0 0 0;
#X coords 0 -1 1 1 90 67 2 100 100;
