#N canvas 113 369 608 422 10;
#X obj 103 103 c.blackboard @size 85 23 @fontname Helvetica @fontweight
normal @fontslant roman @fontsize 11 @receive (null) @send (null) @chalkmode
0 @bgcolor 0.897178 0.897178 0.897178 1 @bdcolor 0.897178 0.897178
0.897178 1;
#X obj 169 106 c.toggle @size 15 15 @fontname Helvetica @fontweight
normal @fontslant roman @fontsize 11 @receive (null) @send (null) @presetname
(null) @bgcolor 0.75 0.75 0.75 1 @bdcolor 0.5 0.5 0.5 1 @crcolor 0.5
0.5 0.5 1;
#X obj 403 31 loadbang;
#X msg 138 284 \; pd dsp \$1;
#X obj 164 40 r pd;
#X obj 164 65 route dsp;
#X msg 164 93 set \$1;
#X obj 399 303 +;
#X msg 395 365 \; pd audio-properties;
#X obj 398 330 sel 2;
#X obj 415 202 > 5;
#X obj 448 202 > 44;
#X obj 495 201 < 63;
#X obj 535 201 < 61;
#X obj 415 168 unpack 0 0;
#X obj 405 276 * 0;
#X obj 455 276 * 0;
#X obj 428 242 t b f;
#X obj 478 242 t b f;
#X obj 478 303 t b f;
#X msg 397 72 1;
#X msg 446 67 0;
#X obj 39 242 cputime;
#X obj 39 186 metro 1000;
#X obj 39 214 t b b;
#X obj 39 302 * 0.1;
#X obj 39 271 int;
#X msg 342 89 0;
#X obj 327 304 sel 0 1;
#X obj 402 105 metro 1000;
#X msg 506 92 \; pd dsp 0;
#X msg 30 -5 clear \, color rgb 0.5 0.5 0.5 \, text 8 8 DSP : \$1 %
\, fill 0 \, width 2 \, rect 4 4 63 21;
#X connect 0 0 14 0;
#X connect 1 0 3 0;
#X connect 2 0 20 0;
#X connect 2 0 30 0;
#X connect 4 0 5 0;
#X connect 5 0 6 0;
#X connect 5 0 23 0;
#X connect 5 0 28 0;
#X connect 6 0 1 0;
#X connect 7 0 9 0;
#X connect 9 0 8 0;
#X connect 10 0 15 0;
#X connect 11 0 16 0;
#X connect 12 0 17 0;
#X connect 13 0 18 0;
#X connect 14 0 10 0;
#X connect 14 0 12 0;
#X connect 14 1 11 0;
#X connect 14 1 13 0;
#X connect 15 0 7 0;
#X connect 16 0 19 0;
#X connect 17 0 15 0;
#X connect 17 1 15 1;
#X connect 18 0 16 0;
#X connect 18 1 16 1;
#X connect 19 0 7 0;
#X connect 19 1 7 1;
#X connect 20 0 29 0;
#X connect 21 0 29 0;
#X connect 22 0 26 0;
#X connect 23 0 24 0;
#X connect 24 0 22 0;
#X connect 24 1 22 1;
#X connect 25 0 31 0;
#X connect 26 0 25 0;
#X connect 27 0 31 0;
#X connect 28 0 20 0;
#X connect 28 1 21 0;
#X connect 29 0 27 0;
#X connect 31 0 0 0;
#X coords 0 -1 1 1 90 28 2 100 100;
