#N canvas 613 175 560 261 10;
#X obj -100 -132 cnv 40 552 40 empty empty EzSound 3 12 0 18 -228856
-33289 0;
#X text -84 100 CICM Libraries | CICM - Université Paris 8 - Labex
Arts H2H;
#X obj -81 -62 EzSound;
#X obj -81 58 dac~;
#X text -97 -110 An abstraction for sound player and synthesizer;
#X text -99 -89 EzSound is an abstraction to synthesize or play sound
;
#X obj 87 -25 EzDSP;
#X connect 2 0 3 0;
#X connect 2 0 3 1;
