#N canvas 308 462 418 371 10;
#X obj 23 103 c.blackboard @size 137 90 @fontname Helvetica @fontweight
normal @fontslant roman @fontsize 11 @receive (null) @send (null) @chalkmode
0 @bgcolor 0.897178 0.897178 0.897178 1 @bdcolor 0.897178 0.897178
0.897178 1;
#X obj 51 171 c.number @size 65 17 @fontname Helvetica @fontweight
normal @fontslant roman @fontsize 11 @receive (null) @send (null) @presetname
(null) @min 0 @max (null) @minmax 0 (null) @decimal 6 @bgcolor 0.75
0.75 0.75 1 @bdcolor 0.5 0.5 0.5 1 @textcolor 0 0 0 1;
#X obj 123 107 c.gain~ @size 15 82 @fontname Helvetica @fontweight
normal @fontslant roman @fontsize 11 @receive (null) @send (null) @presetname
(null) @mode 0 @ramp 20 @bgcolor 0.75 0.75 0.75 1 @bdcolor 0.5 0.5
0.5 1 @kncolor 0.5 0.5 0.5 1;
#X obj 142 107 c.meter~ @size 14 82 @fontname Helvetica @fontweight
normal @fontslant roman @fontsize 11 @receive (null) @send (null) @interval
50 @bgcolor 0.75 0.75 0.75 1 @bdcolor 0.5 0.5 0.5 1 @coldcolor 0 0.6
0 0.8 @tepidcolor 0.6 0.73 0 0.8 @warmcolor 0.85 0.85 0 0.8 @hotcolor
1 0.6 0 0.8 @overcolor 1 0 0 0.8;
#X obj 160 221 outlet~;
#N canvas 571 393 749 294 gestion_all 0;
#X obj 114 9 inlet;
#X obj 386 256 outlet;
#X obj 258 258 outlet;
#X obj 114 253 outlet~;
#X obj 276 9 inlet;
#X obj 457 9 inlet;
#X text 164 257 Signal out;
#X text 300 257 Draw out;
#X text 152 9 Menu in;
#X text 313 9 Mouse in;
#X text 493 9 Numbox in;
#N canvas 825 102 450 300 adc_all 0;
#N canvas 381 53 617 440 adc_sel 0;
#X obj 279 322 +;
#X obj 232 180 * 0;
#X obj 437 180 * 0;
#X obj 232 160 t b f;
#X obj 440 153 t b f;
#X obj 425 298 t b f;
#X obj 272 180 * 0;
#X obj 272 160 t b f;
#X obj 312 180 * 0;
#X obj 312 160 t b f;
#X obj 352 180 * 0;
#X obj 352 160 t b f;
#X obj 352 119 < 98;
#X obj 272 202 * 2;
#X obj 312 202 * 3;
#X obj 352 202 * 4;
#X obj 352 162;
#X obj 232 249 +;
#X obj 312 249 +;
#X obj 282 299 +;
#X obj 339 224 t b f;
#X obj 249 224 t b f;
#X obj 281 272 t b f;
#X obj 279 344 - 2;
#X obj 225 10 inlet;
#X obj 274 369 outlet;
#X obj 175 13 inlet;
#X obj 175 401 outlet;
#X obj 352 140 > 76;
#X obj 427 129 > 50;
#X obj 427 109 < 66;
#X obj 312 140 > 52;
#X obj 312 119 < 76;
#X obj 272 119 < 52;
#X obj 272 140 > 28;
#X obj 232 119 < 28;
#X obj 232 140 > 5;
#X obj 175 38 == 1;
#X obj 487 180 * 0;
#X obj 487 160 t b f;
#X obj 477 129 > 66;
#X obj 477 109 < 90;
#X obj 433 263 +;
#X obj 232 86 spigot;
#X obj 404 82 spigot;
#X obj 228 41 unpack;
#X msg 395 365 \; pd audio-properties;
#X obj 491 290 sel 1;
#X msg 206 286 0;
#X obj 330 391 nbx 5 14 -1e+37 1e+37 0 0 empty empty empty 0 -8 0 10
-262144 -1 -1 0 256;
#X obj 136 38 sel 1;
#X connect 0 0 23 0;
#X connect 1 0 17 0;
#X connect 2 0 42 0;
#X connect 3 0 1 0;
#X connect 3 1 1 1;
#X connect 4 0 2 0;
#X connect 4 1 2 1;
#X connect 5 0 0 0;
#X connect 5 1 0 1;
#X connect 6 0 13 0;
#X connect 7 0 6 0;
#X connect 7 1 6 1;
#X connect 8 0 14 0;
#X connect 9 0 8 0;
#X connect 9 1 8 1;
#X connect 10 0 15 0;
#X connect 11 0 10 0;
#X connect 11 1 10 1;
#X connect 12 0 11 0;
#X connect 13 0 17 1;
#X connect 13 0 21 0;
#X connect 14 0 18 0;
#X connect 15 0 18 1;
#X connect 15 0 20 0;
#X connect 17 0 19 0;
#X connect 18 0 22 0;
#X connect 19 0 0 0;
#X connect 20 0 18 0;
#X connect 20 1 18 1;
#X connect 21 0 17 0;
#X connect 21 1 17 1;
#X connect 22 0 19 0;
#X connect 22 1 19 1;
#X connect 23 0 25 0;
#X connect 23 0 49 0;
#X connect 24 0 45 0;
#X connect 26 0 37 0;
#X connect 26 0 50 0;
#X connect 28 0 10 0;
#X connect 28 0 16 0;
#X connect 29 0 2 0;
#X connect 30 0 4 0;
#X connect 31 0 8 0;
#X connect 32 0 9 0;
#X connect 33 0 7 0;
#X connect 34 0 6 0;
#X connect 35 0 3 0;
#X connect 36 0 1 0;
#X connect 37 0 27 0;
#X connect 37 0 43 1;
#X connect 37 0 44 1;
#X connect 38 0 47 0;
#X connect 39 0 38 0;
#X connect 39 1 38 1;
#X connect 40 0 38 0;
#X connect 41 0 39 0;
#X connect 42 0 5 0;
#X connect 43 0 12 0;
#X connect 43 0 28 0;
#X connect 43 0 31 0;
#X connect 43 0 32 0;
#X connect 43 0 33 0;
#X connect 43 0 34 0;
#X connect 43 0 35 0;
#X connect 43 0 36 0;
#X connect 44 0 29 0;
#X connect 44 0 30 0;
#X connect 44 0 40 0;
#X connect 44 0 41 0;
#X connect 45 0 43 0;
#X connect 45 1 44 0;
#X connect 47 0 46 0;
#X connect 48 0 25 0;
#X connect 50 0 48 0;
#X restore 82 82 pd adc_sel;
#N canvas 415 397 708 443 adc_draw 0;
#X obj 101 389 outlet;
#X obj 24 5 inlet;
#X obj 24 29 t f b;
#X obj 24 53 route 0 1 2 3;
#X msg 79 172 fill 1 \, color rgb 0.5 0.5 0.5 \, rect 77 51 97 65 \,
color rgb 0 0 0 \, text 83 54 4 \,;
#X msg 24 317 fill 1 \, color rgb 0.5 0.5 0.5 \, rect 5 51 25 65 \,
color rgb 0 0 0 \, text 11 54 1 \,;
#X msg 43 268 fill 1 \, color rgb 0.5 0.5 0.5 \, rect 29 51 49 65 \,
color rgb 0 0 0 \, text 36 54 2 \,;
#X msg 61 209 fill 1 \, color rgb 0.5 0.5 0.5 \, rect 53 51 73 65 \,
color rgb 0 0 0 \, text 60 54 3 \,;
#X msg 98 88 clear \, color rgb 0.5 0.5 0.5 \, fill 0 \, width 2 \,
text 8 33 Input : \, rect 5 28 97 47 \, rect 5 51 25 65 \, rect 29
51 49 65 \, rect 53 51 73 65 \, rect 77 51 97 65 \, text 8 74 I/O Settings
\, rect 5 69 97 89 \, color rgb 0 0 0 \, text 11 54 1 \, text 36 54
2 \, text 60 54 3 \, text 83 54 4;
#X connect 1 0 2 0;
#X connect 2 0 3 0;
#X connect 2 1 8 0;
#X connect 3 0 5 0;
#X connect 3 1 6 0;
#X connect 3 2 7 0;
#X connect 3 3 4 0;
#X connect 4 0 0 0;
#X connect 5 0 0 0;
#X connect 6 0 0 0;
#X connect 7 0 0 0;
#X connect 8 0 0 0;
#X restore 165 120 pd adc_draw;
#N canvas 844 442 613 375 adc_syn 0;
#X obj 79 135 *~ 0;
#X obj 100 108 == 0;
#X obj 145 135 *~ 0;
#X obj 236 132 *~ 0;
#X obj 165 104 == 1;
#X obj 267 106 == 2;
#X obj 318 133 *~ 0;
#X obj 119 23 inlet;
#X obj 348 107 == 3;
#X obj 80 235 *~ 0;
#X obj 69 23 inlet;
#X obj 85 291 outlet~;
#X obj 79 82 adc~ 1;
#X obj 144 83 adc~ 2;
#X obj 236 79 adc~ 3;
#X obj 318 80 adc~ 4;
#X connect 0 0 9 0;
#X connect 1 0 0 1;
#X connect 2 0 9 0;
#X connect 3 0 9 0;
#X connect 4 0 2 1;
#X connect 5 0 3 1;
#X connect 6 0 9 0;
#X connect 7 0 1 0;
#X connect 7 0 4 0;
#X connect 7 0 5 0;
#X connect 7 0 8 0;
#X connect 8 0 6 1;
#X connect 9 0 11 0;
#X connect 10 0 9 1;
#X connect 12 0 0 0;
#X connect 13 0 2 0;
#X connect 14 0 3 0;
#X connect 15 0 6 0;
#X restore 82 164 pd adc_syn;
#X obj 82 32 inlet;
#X obj 138 32 inlet;
#X obj 83 224 outlet~;
#X obj 165 224 outlet;
#X obj 258 222 outlet;
#X msg 258 123 vis 0;
#X obj 258 97 sel 1;
#X obj 82 56 t f f;
#X connect 0 0 2 0;
#X connect 0 1 2 1;
#X connect 0 1 1 0;
#X connect 1 0 6 0;
#X connect 2 0 5 0;
#X connect 3 0 10 0;
#X connect 4 0 0 1;
#X connect 8 0 7 0;
#X connect 9 0 8 0;
#X connect 10 0 0 0;
#X connect 10 1 9 0;
#X restore 217 130 pd adc_all;
#N canvas 689 153 450 300 noise_all 0;
#X obj 114 207 outlet~;
#X obj 114 29 inlet;
#X obj 199 29 inlet;
#X obj 249 29 inlet;
#X obj 194 207 outlet;
#N canvas 826 118 617 440 noi_sel 0;
#X obj 279 322 +;
#X obj 232 180 * 0;
#X obj 427 170 * 0;
#X obj 232 160 t b f;
#X obj 427 150 t b f;
#X obj 427 189 t b f;
#X obj 272 180 * 0;
#X obj 272 160 t b f;
#X obj 312 180 * 0;
#X obj 312 160 t b f;
#X obj 352 180 * 0;
#X obj 351 160 t b f;
#X obj 352 119 < 98;
#X obj 272 202 * 2;
#X obj 312 202 * 3;
#X obj 352 202 * 4;
#X obj 232 249 +;
#X obj 312 249 +;
#X obj 282 299 +;
#X obj 339 224 t b f;
#X obj 249 224 t b f;
#X obj 281 272 t b f;
#X obj 279 344 - 2;
#X obj 265 10 inlet;
#X obj 279 395 outlet;
#X obj 185 10 inlet;
#X obj 352 140 > 76;
#X obj 427 129 > 50;
#X obj 427 109 < 66;
#X obj 312 140 > 52;
#X obj 312 119 < 76;
#X obj 272 119 < 52;
#X obj 272 140 > 28;
#X obj 232 119 < 28;
#X obj 232 140 > 5;
#X msg 148 246 0;
#X obj 232 65 spigot;
#X obj 303 65 spigot;
#X obj 264 36 unpack;
#X obj 148 38 sel 3;
#X obj 184 38 == 3;
#X obj 334 395 outlet;
#X msg 178 246 1000;
#X connect 0 0 22 0;
#X connect 1 0 16 0;
#X connect 2 0 5 0;
#X connect 3 0 1 0;
#X connect 3 1 1 1;
#X connect 4 0 2 0;
#X connect 4 1 2 1;
#X connect 5 0 0 0;
#X connect 5 1 0 1;
#X connect 6 0 13 0;
#X connect 7 0 6 0;
#X connect 7 1 6 1;
#X connect 8 0 14 0;
#X connect 9 0 8 0;
#X connect 9 1 8 1;
#X connect 10 0 15 0;
#X connect 11 0 10 0;
#X connect 11 1 10 1;
#X connect 12 0 11 0;
#X connect 13 0 16 1;
#X connect 13 0 20 0;
#X connect 14 0 17 0;
#X connect 15 0 17 1;
#X connect 15 0 19 0;
#X connect 16 0 18 0;
#X connect 17 0 21 0;
#X connect 18 0 0 0;
#X connect 19 0 17 0;
#X connect 19 1 17 1;
#X connect 20 0 16 0;
#X connect 20 1 16 1;
#X connect 21 0 18 0;
#X connect 21 1 18 1;
#X connect 22 0 24 0;
#X connect 23 0 38 0;
#X connect 25 0 39 0;
#X connect 25 0 40 0;
#X connect 26 0 10 0;
#X connect 27 0 2 0;
#X connect 28 0 4 0;
#X connect 29 0 8 0;
#X connect 30 0 9 0;
#X connect 31 0 7 0;
#X connect 32 0 6 0;
#X connect 33 0 3 0;
#X connect 34 0 1 0;
#X connect 35 0 24 0;
#X connect 36 0 12 0;
#X connect 36 0 26 0;
#X connect 36 0 29 0;
#X connect 36 0 30 0;
#X connect 36 0 31 0;
#X connect 36 0 32 0;
#X connect 36 0 33 0;
#X connect 36 0 34 0;
#X connect 37 0 27 0;
#X connect 37 0 28 0;
#X connect 38 0 36 0;
#X connect 38 1 37 0;
#X connect 39 0 35 0;
#X connect 39 0 42 0;
#X connect 40 0 36 1;
#X connect 40 0 37 1;
#X connect 42 0 41 0;
#X restore 142 79 pd noi_sel;
#N canvas 623 108 617 440 noi_draw 0;
#X obj 59 392 outlet;
#X obj 153 29 inlet;
#X obj 14 57 t f b;
#X obj 14 169 route 0 1 2 3;
#X msg 14 328 fill 1 \, rect 5 51 25 65 \, image 5 51 alp.gif \, fill
0 \, rect 5 51 25 65;
#X msg 32 287 fill 1 \, rect 29 51 49 65 \, image 29 51 lop.gif \,
fill 0 \, rect 29 51 49 65;
#X msg 52 241 fill 1 \, rect 53 51 73 65 \, image 53 51 hip.gif \,
fill 0 \, rect 53 51 73 65;
#X msg 71 202 fill 1 \, rect 77 51 97 65 \, image 77 51 bap.gif \,
fill 0 \, rect 77 51 97 65;
#X msg 43 91 clear \, color rgb 0.5 0.5 0.5 \, fill 0 \, width 2 \,
text 8 33 Filter : \, rect 5 28 97 47 \, image 5 51 alp.gif \, rect
5 51 25 65 \, image 29 51 lop.gif \, rect 29 51 49 65 \, image 53 51
hip.gif \, rect 53 51 73 65 \, image 77 51 bap.gif \, rect 77 51 97
65 \, text 8 74 Fq \, rect 5 69 25 88;
#X connect 1 0 2 0;
#X connect 2 0 3 0;
#X connect 2 1 8 0;
#X connect 3 0 4 0;
#X connect 3 1 5 0;
#X connect 3 2 6 0;
#X connect 3 3 7 0;
#X connect 4 0 0 0;
#X connect 5 0 0 0;
#X connect 6 0 0 0;
#X connect 7 0 0 0;
#X connect 8 0 0 0;
#X restore 191 160 pd noi_draw;
#X obj 284 211 outlet;
#X msg 328 162 1000;
#X obj 284 78 sel 3;
#X obj 114 57 t f f;
#X msg 284 161 vis 1;
#N canvas 951 367 613 375 noi_syn 0;
#X obj 149 175 *~ 0;
#X obj 170 148 == 0;
#X obj 215 175 *~ 0;
#X obj 306 172 *~ 0;
#X obj 235 144 == 1;
#X obj 337 146 == 2;
#X obj 388 173 *~ 0;
#X obj 259 23 inlet;
#X obj 189 23 inlet;
#X obj 418 147 == 3;
#X obj 80 235 *~ 0;
#X obj 103 23 inlet;
#X obj 80 291 outlet~;
#X obj 103 51 == 3;
#X obj 214 116 lop~ 1000;
#X obj 306 119 hip~ 1000;
#X obj 156 48 noise~;
#X obj 388 120 bp~ 1000 10;
#X connect 0 0 10 0;
#X connect 1 0 0 1;
#X connect 2 0 10 0;
#X connect 3 0 10 0;
#X connect 4 0 2 1;
#X connect 5 0 3 1;
#X connect 6 0 10 0;
#X connect 7 0 14 1;
#X connect 7 0 17 1;
#X connect 7 0 15 1;
#X connect 8 0 1 0;
#X connect 8 0 4 0;
#X connect 8 0 5 0;
#X connect 8 0 9 0;
#X connect 9 0 6 1;
#X connect 10 0 12 0;
#X connect 11 0 13 0;
#X connect 13 0 10 1;
#X connect 14 0 2 0;
#X connect 15 0 3 0;
#X connect 16 0 0 0;
#X connect 16 0 14 0;
#X connect 16 0 15 0;
#X connect 16 0 17 0;
#X connect 17 0 6 0;
#X restore 114 161 pd noi_syn;
#X connect 1 0 10 0;
#X connect 2 0 5 1;
#X connect 3 0 12 2;
#X connect 5 0 6 0;
#X connect 5 0 12 1;
#X connect 6 0 4 0;
#X connect 8 0 7 0;
#X connect 9 0 11 0;
#X connect 9 0 8 0;
#X connect 10 0 5 0;
#X connect 10 0 12 0;
#X connect 10 1 9 0;
#X connect 11 0 7 0;
#X connect 12 0 0 0;
#X restore 404 130 pd noise_all;
#N canvas 27 174 450 300 gener_all 0;
#N canvas 451 434 613 375 osc_syn 0;
#X obj 149 82 osc~ 220;
#X obj 149 135 *~ 0;
#X obj 215 83 phasor~ 220;
#X obj 306 79 noise~;
#X obj 170 108 == 0;
#X obj 215 135 *~ 0;
#X obj 306 132 *~ 0;
#X obj 235 104 == 1;
#X obj 337 106 == 2;
#X obj 388 133 *~ 0;
#X obj 388 80 sig~ 1;
#X obj 259 23 inlet;
#X obj 189 23 inlet;
#X obj 418 107 == 3;
#X obj 80 235 *~ 0;
#X obj 103 23 inlet;
#X obj 80 291 outlet~;
#X obj 103 51 == 0;
#X connect 0 0 1 0;
#X connect 1 0 14 0;
#X connect 2 0 5 0;
#X connect 3 0 6 0;
#X connect 4 0 1 1;
#X connect 5 0 14 0;
#X connect 6 0 14 0;
#X connect 7 0 5 1;
#X connect 8 0 6 1;
#X connect 9 0 14 0;
#X connect 10 0 9 0;
#X connect 11 0 0 0;
#X connect 11 0 2 0;
#X connect 11 0 10 0;
#X connect 12 0 4 0;
#X connect 12 0 7 0;
#X connect 12 0 8 0;
#X connect 12 0 13 0;
#X connect 13 0 9 1;
#X connect 14 0 16 0;
#X connect 15 0 17 0;
#X connect 17 0 14 1;
#X restore 114 161 pd osc_syn;
#N canvas 826 118 617 440 osc_sel 0;
#X obj 279 322 +;
#X obj 232 180 * 0;
#X obj 427 170 * 0;
#X obj 232 160 t b f;
#X obj 427 150 t b f;
#X obj 427 189 t b f;
#X obj 272 180 * 0;
#X obj 272 160 t b f;
#X obj 312 180 * 0;
#X obj 312 160 t b f;
#X obj 352 180 * 0;
#X obj 351 160 t b f;
#X obj 352 119 < 98;
#X obj 272 202 * 2;
#X obj 312 202 * 3;
#X obj 352 202 * 4;
#X obj 232 249 +;
#X obj 312 249 +;
#X obj 282 299 +;
#X obj 339 224 t b f;
#X obj 249 224 t b f;
#X obj 281 272 t b f;
#X obj 279 344 - 2;
#X obj 265 10 inlet;
#X obj 279 395 outlet;
#X obj 184 38 == 0;
#X obj 185 10 inlet;
#X obj 352 140 > 76;
#X obj 427 129 > 50;
#X obj 427 109 < 66;
#X obj 312 140 > 52;
#X obj 312 119 < 76;
#X obj 272 119 < 52;
#X obj 272 140 > 28;
#X obj 232 119 < 28;
#X obj 232 140 > 5;
#X msg 148 246 0;
#X obj 232 65 spigot;
#X obj 303 65 spigot;
#X obj 264 36 unpack;
#X obj 334 335 sel 3;
#X obj 148 38 sel 0;
#X obj 334 395 outlet;
#X msg 334 370 0;
#X connect 0 0 22 0;
#X connect 1 0 16 0;
#X connect 2 0 5 0;
#X connect 3 0 1 0;
#X connect 3 1 1 1;
#X connect 4 0 2 0;
#X connect 4 1 2 1;
#X connect 5 0 0 0;
#X connect 5 1 0 1;
#X connect 6 0 13 0;
#X connect 7 0 6 0;
#X connect 7 1 6 1;
#X connect 8 0 14 0;
#X connect 9 0 8 0;
#X connect 9 1 8 1;
#X connect 10 0 15 0;
#X connect 11 0 10 0;
#X connect 11 1 10 1;
#X connect 12 0 11 0;
#X connect 13 0 16 1;
#X connect 13 0 20 0;
#X connect 14 0 17 0;
#X connect 15 0 17 1;
#X connect 15 0 19 0;
#X connect 16 0 18 0;
#X connect 17 0 21 0;
#X connect 18 0 0 0;
#X connect 19 0 17 0;
#X connect 19 1 17 1;
#X connect 20 0 16 0;
#X connect 20 1 16 1;
#X connect 21 0 18 0;
#X connect 21 1 18 1;
#X connect 22 0 24 0;
#X connect 22 0 40 0;
#X connect 23 0 39 0;
#X connect 25 0 37 1;
#X connect 25 0 38 1;
#X connect 26 0 25 0;
#X connect 26 0 41 0;
#X connect 27 0 10 0;
#X connect 28 0 2 0;
#X connect 29 0 4 0;
#X connect 30 0 8 0;
#X connect 31 0 9 0;
#X connect 32 0 7 0;
#X connect 33 0 6 0;
#X connect 34 0 3 0;
#X connect 35 0 1 0;
#X connect 36 0 24 0;
#X connect 37 0 12 0;
#X connect 37 0 27 0;
#X connect 37 0 30 0;
#X connect 37 0 31 0;
#X connect 37 0 32 0;
#X connect 37 0 33 0;
#X connect 37 0 34 0;
#X connect 37 0 35 0;
#X connect 38 0 28 0;
#X connect 38 0 29 0;
#X connect 39 0 37 0;
#X connect 39 1 38 0;
#X connect 40 0 43 0;
#X connect 41 0 36 0;
#X connect 43 0 42 0;
#X restore 142 89 pd osc_sel;
#N canvas 800 108 617 440 osc_draw 0;
#X obj 52 396 outlet;
#X obj 28 11 inlet;
#X obj 28 37 t f b;
#X obj 28 137 route 0 1 2 3;
#X msg 84 168 fill 1 \, rect 77 51 97 65 \, image 77 51 dirac.gif \,
fill 0 \, rect 77 51 97 65;
#X msg 65 204 fill 1 \, rect 53 51 73 65 \, image 53 51 noise.gif \,
fill 0 \, rect 53 51 73 65;
#X msg 45 248 fill 1 \, rect 29 51 49 65 \, image 29 51 phas.gif \,
fill 0 \, rect 29 51 49 65;
#X msg 29 287 fill 1 \, rect 5 51 25 65 \, image 5 51 oscil.gif \,
fill 0 \, rect 5 51 25 65;
#X msg 55 58 clear \, color rgb 0.5 0.5 0.5 \, fill 0 \, width 2 \,
text 8 33 Waveform : \, rect 5 28 97 47 \, image 5 51 oscil.gif \,
rect 5 51 25 65 \, image 29 51 phas.gif \, rect 29 51 49 65 \, image
53 51 noise.gif \, rect 53 51 73 65 \, image 77 51 dirac.gif \, rect
77 51 97 65 \, text 8 74 Fq \, rect 5 69 25 88;
#X connect 1 0 2 0;
#X connect 2 0 3 0;
#X connect 2 1 8 0;
#X connect 3 0 7 0;
#X connect 3 1 6 0;
#X connect 3 2 5 0;
#X connect 3 3 4 0;
#X connect 4 0 0 0;
#X connect 5 0 0 0;
#X connect 6 0 0 0;
#X connect 7 0 0 0;
#X connect 8 0 0 0;
#X restore 193 159 pd osc_draw;
#X obj 114 207 outlet~;
#X obj 114 27 inlet;
#X obj 199 29 inlet;
#X obj 249 29 inlet;
#X obj 194 207 outlet;
#X obj 315 207 outlet;
#X obj 315 83 sel 0;
#X msg 315 128 220;
#X msg 352 128 vis 1;
#X obj 114 50 t f f;
#X connect 0 0 3 0;
#X connect 1 0 2 0;
#X connect 1 0 0 1;
#X connect 1 1 8 0;
#X connect 2 0 7 0;
#X connect 4 0 12 0;
#X connect 5 0 1 1;
#X connect 6 0 0 2;
#X connect 9 0 10 0;
#X connect 9 0 11 0;
#X connect 10 0 8 0;
#X connect 11 0 8 0;
#X connect 12 0 1 0;
#X connect 12 0 0 0;
#X connect 12 1 9 0;
#X restore 114 130 pd gener_all;
#N canvas 549 153 450 300 sf_all 0;
#N canvas 675 114 643 522 sf_sel 0;
#X obj 201 -9 inlet;
#X obj 277 20 == 2;
#X obj 234 471 outlet;
#X obj 427 260 * 0;
#X obj 375 182 < 98;
#X obj 244 -9 inlet;
#X obj 360 162 > 76;
#X obj 427 209 > 50;
#X obj 456 234 < 66;
#X obj 310 162 > 52;
#X obj 325 182 < 76;
#X obj 275 182 < 52;
#X obj 260 162 > 28;
#X obj 225 182 < 28;
#X obj 210 162 > 5;
#X obj 244 44 spigot;
#X obj 244 102 unpack;
#X obj 150 216 sel 2;
#X obj 538 260 * 0;
#X obj 538 206 > 66;
#X obj 565 235 < 90;
#X obj 538 287 sel 1;
#X obj 541 419 outlet;
#X obj 244 73 t l l;
#X obj 394 103 unpack;
#X obj 427 172 t f f;
#X obj 538 172 t f f;
#X obj 277 401 spigot;
#X obj 232 401 spigot;
#X obj 210 216 + 0;
#X obj 210 249 sel 2;
#X msg 210 286 0;
#X msg 260 286 1;
#X obj 260 216 + 0;
#X obj 260 249 sel 2;
#X obj 310 216 + 0;
#X obj 310 249 sel 2;
#X msg 310 286 0;
#X msg 360 286 1;
#X obj 360 216 + 0;
#X obj 360 249 sel 2;
#X obj 244 128 t f f f f f f f f;
#X obj 277 471 outlet;
#X msg 151 374 1;
#X obj 178 411 t f f;
#X connect 0 0 1 0;
#X connect 0 0 17 0;
#X connect 1 0 15 1;
#X connect 3 0 27 1;
#X connect 3 0 28 1;
#X connect 4 0 39 1;
#X connect 5 0 15 0;
#X connect 6 0 39 0;
#X connect 7 0 3 0;
#X connect 8 0 3 1;
#X connect 9 0 35 0;
#X connect 10 0 35 1;
#X connect 11 0 33 1;
#X connect 12 0 33 0;
#X connect 13 0 29 1;
#X connect 14 0 29 0;
#X connect 15 0 23 0;
#X connect 16 0 41 0;
#X connect 17 0 43 0;
#X connect 18 0 21 0;
#X connect 19 0 18 0;
#X connect 20 0 18 1;
#X connect 21 0 22 0;
#X connect 23 0 16 0;
#X connect 23 1 24 0;
#X connect 24 1 25 0;
#X connect 24 1 26 0;
#X connect 25 0 7 0;
#X connect 25 1 8 0;
#X connect 26 0 19 0;
#X connect 26 1 20 0;
#X connect 27 0 42 0;
#X connect 28 0 2 0;
#X connect 29 0 30 0;
#X connect 30 0 31 0;
#X connect 31 0 28 0;
#X connect 32 0 28 0;
#X connect 33 0 34 0;
#X connect 34 0 32 0;
#X connect 35 0 36 0;
#X connect 36 0 37 0;
#X connect 37 0 27 0;
#X connect 38 0 27 0;
#X connect 39 0 40 0;
#X connect 40 0 38 0;
#X connect 41 0 14 0;
#X connect 41 1 13 0;
#X connect 41 2 12 0;
#X connect 41 3 11 0;
#X connect 41 4 9 0;
#X connect 41 5 10 0;
#X connect 41 6 6 0;
#X connect 41 7 4 0;
#X connect 43 0 44 0;
#X connect 44 0 42 0;
#X connect 44 1 2 0;
#X restore 196 92 pd sf_sel;
#N canvas 734 343 574 453 sf_syn 0;
#X obj 69 289 readsf~;
#X obj 153 176 spigot;
#X msg 49 92 0;
#X msg 114 178 1;
#X msg 114 220 1;
#X obj 159 215 t b b;
#X obj 22 43 sel 2;
#X obj 158 -9 openpanel;
#X msg 203 30 set open \$1;
#X obj 156 -68 inlet;
#X obj 181 -29 bng 15 250 50 0 empty empty empty 17 7 0 10 -262144
-1 -1;
#X obj 67 -66 inlet;
#X obj 17 -66 inlet;
#X obj 117 331 outlet~;
#X obj 86 22 sel 1;
#X msg 72 130 open Sound1.wav;
#X obj 189 119 -;
#X obj 117 -66 inlet;
#X msg 193 94 1;
#X obj 195 70 t b f;
#X obj 202 303 outlet;
#X msg 180 274 0;
#X msg 220 274 1;
#X obj 223 176 spigot;
#X connect 0 0 13 0;
#X connect 0 1 1 0;
#X connect 0 1 23 0;
#X connect 1 0 5 0;
#X connect 2 0 0 0;
#X connect 2 0 22 0;
#X connect 3 0 5 0;
#X connect 3 0 21 0;
#X connect 4 0 0 0;
#X connect 5 0 4 0;
#X connect 5 0 21 0;
#X connect 5 1 15 0;
#X connect 6 1 2 0;
#X connect 7 0 8 0;
#X connect 8 0 15 0;
#X connect 9 0 10 0;
#X connect 10 0 7 0;
#X connect 11 0 14 0;
#X connect 12 0 6 0;
#X connect 14 0 2 0;
#X connect 14 1 3 0;
#X connect 15 0 0 0;
#X connect 16 0 1 1;
#X connect 17 0 19 0;
#X connect 17 0 23 1;
#X connect 18 0 16 0;
#X connect 19 0 18 0;
#X connect 19 1 16 1;
#X connect 21 0 20 0;
#X connect 22 0 20 0;
#X connect 23 0 22 0;
#X restore 139 184 pd sf_syn;
#X obj 348 221 outlet;
#X msg 348 122 vis 0;
#X obj 196 29 inlet;
#X obj 196 55 t f f;
#X obj 288 221 outlet;
#X obj 208 221 outlet~;
#X obj 266 29 inlet;
#X obj 348 96 sel 2;
#N canvas 776 391 617 440 sf_draw 0;
#X obj 52 396 outlet;
#X obj 28 11 inlet;
#X msg 29 287 fill 1 \, rect 5 51 25 65 \, image 5 51 play.gif \, fill
0 \, rect 5 51 25 65;
#X msg 45 248 fill 1 \, rect 29 51 49 65 \, image 29 51 stop.gif \,
fill 0 \, rect 29 51 49 65;
#X msg 65 204 fill 1 \, rect 53 51 73 65 \, image 53 51 loop.gif \,
fill 0 \, rect 53 51 73 65;
#X msg 150 63 clear \, color rgb 0.5 0.5 0.5 \, fill 0 \, width 2 \,
text 8 33 Control : \, rect 5 28 97 47 \, image 5 51 play.gif \, rect
5 51 25 65 \, image 29 51 stop.gif \, rect 29 51 49 65 \, image 53
51 loop.gif \, rect 53 51 73 65 \, image 77 51 noloop.gif \, rect 77
51 97 65 \, text 8 74 Open File \, rect 5 69 97 89 \,;
#X obj 28 137 route 0 1;
#X obj 88 137 route 0 1;
#X obj 67 6 inlet;
#X msg 84 168 fill 1 \, rect 77 51 97 65 \, image 77 51 noloop.gif
\, fill 0 \, rect 77 51 97 65;
#X msg 87 77 set \$1;
#X obj 87 106 nbx 5 14 -1e+37 1e+37 0 0 empty empty empty 0 -8 0 10
-262144 -1 -1 0 256;
#X msg 27 77 set \$1;
#X obj 27 106 nbx 5 14 -1e+37 1e+37 0 0 empty empty empty 0 -8 0 10
-262144 -1 -1 0 256;
#X obj 28 37 t b b f;
#X obj 79 37 t b b f;
#X connect 1 0 14 0;
#X connect 2 0 0 0;
#X connect 3 0 0 0;
#X connect 4 0 0 0;
#X connect 5 0 0 0;
#X connect 6 0 2 0;
#X connect 6 1 3 0;
#X connect 7 0 4 0;
#X connect 7 1 9 0;
#X connect 8 0 15 0;
#X connect 9 0 0 0;
#X connect 10 0 11 0;
#X connect 11 0 7 0;
#X connect 12 0 13 0;
#X connect 13 0 6 0;
#X connect 14 0 13 0;
#X connect 14 0 11 0;
#X connect 14 1 5 0;
#X connect 14 2 12 0;
#X connect 15 0 11 0;
#X connect 15 0 13 0;
#X connect 15 1 5 0;
#X connect 15 2 10 0;
#X restore 253 159 pd sf_draw;
#X obj 130 112 spigot;
#X obj 146 84 == 2;
#X obj 125 51 t f f;
#X connect 0 0 1 1;
#X connect 0 1 10 1;
#X connect 0 1 1 2;
#X connect 0 2 1 3;
#X connect 1 0 7 0;
#X connect 1 1 10 0;
#X connect 3 0 2 0;
#X connect 4 0 5 0;
#X connect 5 0 0 0;
#X connect 5 0 13 0;
#X connect 5 1 9 0;
#X connect 8 0 0 1;
#X connect 9 0 3 0;
#X connect 10 0 6 0;
#X connect 11 0 1 0;
#X connect 12 0 11 1;
#X connect 13 0 11 0;
#X connect 13 1 12 0;
#X restore 299 130 pd sf_all;
#X text 429 258 Numbox out;
#X connect 0 0 13 0;
#X connect 0 0 11 0;
#X connect 0 0 12 0;
#X connect 0 0 14 0;
#X connect 4 0 13 1;
#X connect 4 0 11 1;
#X connect 4 0 12 1;
#X connect 4 0 14 1;
#X connect 5 0 13 2;
#X connect 5 0 12 2;
#X connect 11 0 3 0;
#X connect 11 1 2 0;
#X connect 11 2 1 0;
#X connect 12 0 3 0;
#X connect 12 1 2 0;
#X connect 12 2 1 0;
#X connect 13 0 3 0;
#X connect 13 1 2 0;
#X connect 13 2 1 0;
#X connect 14 0 3 0;
#X connect 14 1 2 0;
#X connect 14 2 1 0;
#X restore 43 67 pd gestion_all;
#X msg 274 42 1;
#X msg 345 70 0;
#X obj 306 33 delay 2000;
#X msg 219 59 0;
#X obj 27 107 c.menu @size 90 17 @fontname Helvetica @fontweight normal
@fontslant roman @fontsize 11 @receive (null) @send (null) @presetname
(null) @hover 0 @items Generator Microphone Soundfile Noise @states
0 0 0 0 @bgcolor 0.75 0.75 0.75 1 @bdcolor 0.5 0.5 0.5 1 @textcolor
0 0 0 1;
#X obj 279 75 metro 100;
#X obj 280 1 loadbang;
#X connect 0 0 5 1;
#X connect 1 0 5 2;
#X connect 2 0 4 0;
#X connect 2 0 3 0;
#X connect 5 0 2 0;
#X connect 5 1 0 0;
#X connect 5 2 1 0;
#X connect 6 0 11 0;
#X connect 7 0 11 0;
#X connect 8 0 7 0;
#X connect 9 0 10 0;
#X connect 10 0 5 0;
#X connect 11 0 9 0;
#X connect 12 0 6 0;
#X connect 12 0 8 0;
#X coords 0 -1 1 1 142 95 2 20 100;
