#N canvas 187 168 1131 507 10;
#X obj -39 -84 cnv 40 552 40 empty empty Chocolate 3 12 0 18 -228856
-33289 0;
#X msg 637 -2 attrprint;
#X text 349 47 - Drag the border or the corner of the box to resize
them. Sometimes the width or the height depends of the font size.;
#X text 349 -25 - Look at the properties window to edit the attributes.
Use the attrprint message to post the attributes characteristics.;
#X obj 252 101 c.plane @size 62 62 @fontname helvetica @fontweight
normal @fontslant regular @fontsize 11 @idname (null) @presetname (null)
@bound -1 -1 1 1 @ptsize 5 @bgcolor 0.75 0.75 0.75 1 @bdcolor 0.5 0.5
0.5 1 @ptcolor 0 0 0 1;
#X obj 192 49 c.incdec @size 15 15 @fontname helvetica @fontweight
normal @fontslant regular @fontsize 11 @idname (null) @step 1 @bgcolor
0.75 0.75 0.75 1 @bdcolor 0.5 0.5 0.5 1 @arcolor 0 0 0 1;
#X obj -13 61 c.number~ @size 53 17 @fontname helvetica @fontweight
normal @fontslant regular @fontsize 11 @idname (null) @interval 50
@decimal 6 @bgcolor 0.75 0.75 0.75 1 @bdcolor 0.5 0.5 0.5 1 @textcolor
0 0 0 1;
#X obj 146 183 c.number @size 53 17 @fontname helvetica @fontweight
normal @fontslant regular @fontsize 11 @idname (null) @presetname (null)
@min (null) @max (null) @decimal 6 @bgcolor 0.75 0.75 0.75 1 @bdcolor
0.5 0.5 0.5 1 @textcolor 0 0 0 1;
#X obj 125 259 c.colorpanel @size 97 51 @fontname helvetica @fontweight
normal @fontslant regular @fontsize 11 @idname (null) @presetname (null)
@matrix 8 5 @reverse 0 @saturation 1 @hue 0 @lightness 1 @bgcolor 0.75
0.75 0.75 1 @bdcolor 0.5 0.5 0.5 1;
#X obj 26 327 c.knob @size 50 50 @fontname helvetica @fontweight normal
@fontslant regular @fontsize 11 @idname (null) @presetname (null) @endless
0 @mode 0 @min 0 @max 1 @bgcolor 0.75 0.75 0.75 1 @bdcolor 0.5 0.5
0.5 1 @necolor 0.5 0.5 0.5 1;
#X obj 43 97 c.meter~ @size 85 13 @fontname helvetica @fontweight normal
@fontslant regular @fontsize 11 @idname (null) @interval 50 @bgcolor
0.75 0.75 0.75 1 @bdcolor 0.5 0.5 0.5 1 @coldcolor 0 0.6 0 0.8 @tepidcolor
0.6 0.73 0 0.8 @warmcolor 0.85 0.85 0 0.8 @hotcolor 1 0.6 0 0.8 @overcolor
1 0 0 0.8;
#X obj -21 156 c.preset @size 102 34 @fontname helvetica @fontweight
normal @fontslant regular @fontsize 7 @idname (null) @bgcolor 0.75
0.75 0.75 1 @bdcolor 0.5 0.5 0.5 1 @textcolor 0 0 0 1 @emcolor 0.85
0.85 0.85 1 @stcolor 0.5 0.5 0.5 1 @secolor 0.15 0.15 0.15 1 @preset
[ ];
#X obj 23 251 c.toggle @size 15 15 @fontname helvetica @fontweight
normal @fontslant regular @fontsize 11 @idname (null) @presetname chocogll
@bgcolor 0.75 0.75 0.75 1 @bdcolor 0.5 0.5 0.5 1 @crcolor 0.5 0.5 0.5
1;
#X obj 400 220 c.slider @size 120 15 @fontname helvetica @fontweight
normal @fontslant regular @fontsize 11 @idname (null) @presetname (null)
@mode 0 @min 0 @max 1 @bgcolor 0.75 0.75 0.75 1 @bdcolor 0.5 0.5 0.5
1 @kncolor 0.5 0.5 0.5 1;
#X obj 914 125 c.radio @size 82 16 @fontname helvetica @fontweight
normal @fontslant regular @fontsize 11 @idname (null) @presetname (null)
@nitems 4 @mode 0 @bgcolor 0.75 0.75 0.75 1 @bdcolor 0.5 0.5 0.5 1
@itcolor 0.5 0.5 0.5 1;
#X obj 266 323 c.menu @size 100 17 @fontname helvetica @fontweight
normal @fontslant regular @fontsize 11 @idname (null) @presetname (null)
@hover 0 @items chocolate @states 0 @bgcolor 0.75 0.75 0.75 1 @bdcolor
0.5 0.5 0.5 1 @textcolor 0 0 0 1;
#X obj 456 331 c.gain~ @size 179 21 @fontname helvetica @fontweight
normal @fontslant regular @fontsize 11 @idname (null) @presetname (null)
@mode 0 @ramp 20 @bgcolor 0.75 0.75 0.75 1 @bdcolor 0.5 0.5 0.5 1 @kncolor
0.5 0.5 0.5 1;
#X obj 857 250 c.tab @size 117 34 @fontname helvetica @fontweight normal
@fontslant regular @fontsize 11 @idname (null) @presetname (null) @orientation
1 @toggle 0 @items vanilla pistachio @bgcolor 0.75 0.75 0.75 1 @bdcolor
0.5 0.5 0.5 1 @textcolor 0 0 0 1 @hocolor 0.5 0.5 0.5 1 @secolor 0.35
0.35 0.35 1;
#X obj 711 326 c.scope~ @size 84 58 @fontname helvetica @fontweight
normal @fontslant regular @fontsize 11 @idname (null) @bufdis 256 @bufsig
256 @range -1 1 @xymode 0 @bgcolor 0.75 0.75 0.75 1 @bdcolor 0.5 0.5
0.5 1 @sicolor 0 0.6 0 0.8;
#X obj 613 201 c.breakpoints @size 98 60 @fontname helvetica @fontweight
normal @fontslant regular @fontsize 11 @idname (null) @presetname (null)
@absrange 0 1000 @ordrange 0 1 @bgcolor 0.75 0.75 0.75 1 @bdcolor 0.5
0.5 0.5 1 @ptcolor 0.5 0.5 0.5 1 @licolor 0 0 0 1 @textcolor 0 0 0
1 @points 20.5479 0 260.274 0.444444 554.794 0.271605 595.89 0.839506
863.014 0.740741 1000 0.160494;
#X obj 789 106 c.blackboard @size 70 65 @fontname helvetica @fontweight
normal @fontslant regular @fontsize 11 @idname (null) @chalkmode 1
@bgcolor 0.75 0.75 0.75 1 @bdcolor 0.5 0.5 0.5 1;
#N canvas 558 159 450 300 load 0;
#X msg 116 146 image 0 0 chocolate2.gif;
#X obj 116 182 outlet;
#X obj 116 79 loadbang;
#X obj 116 110 delay 500;
#X connect 0 0 1 0;
#X connect 2 0 3 0;
#X connect 3 0 0 0;
#X restore 795 132 pd load;
#X text 349 21 - Inlets and outlets are hidden with "runmode".;
#X text 349 83 - Popup menu for properties window and help is only
available with "editmode";
#X text -36 -62 A set of GUI for those who like vanilla...;
#X obj 129 161 pddplink c.number-help.pd;
#X text 224 -62 but also want some chocolate;
#X text 349 113 - Some object are very similar to the vanilla's ones
but they're compatible with the preset and will be a part of a global
system to write time events.;
#X obj 263 303 pddplink c.menu-help.pd -text c.menu;
#X obj 316 248 pddplink c.bang-help.pd -text c.bang;
#X obj 397 200 pddplink c.slider-help.pd -text c.slider;
#X obj 854 232 pddplink c.tab-help.pd -text c.tab;
#X obj 452 311 pddplink c.gain~-help.pd -text c.gain~;
#X obj 707 306 pddplink c.scope~-help.pd -text c.scope~;
#X obj 609 181 pddplink c.breakpoints-help.pd -text c.breakpoints;
#X obj 785 87 pddplink c.blackboard-help.pd -text c.blackboard;
#X obj 249 81 pddplink c.plane-help.pd -text c.plane;
#X obj 188 31 pddplink c.incdec-help.pd -text c.incdec;
#X obj 39 77 pddplink c.meter~-help.pd -text c.meter~;
#X obj -23 136 pddplink c.preset-help.pd -text c.preset;
#X obj 20 232 pddplink c.toggle-help.pd -text c.toggle;
#X obj 121 238 pddplink c.colorpanel-help.pd -text c.colorpanel;
#X obj 909 107 pddplink c.radio-help.pd -text c.radio;
#X obj 23 306 pddplink c.knob-help.pd -text c.knob;
#X text -39 -26 developed to facilitate the creation of signal objects
and GUI and to improve user interactions.;
#X text 43 394 Pd Chocolate by Pierre Guillot - CICM | Université
Paris 8;
#X obj -16 11 c.tab @size 69 18 @fontname Monaco @fontweight normal
@fontslant regular @fontsize 10 @idname (null) @presetname (null) @orientation
0 @toggle 0 @items c.number~ @bgcolor 1 1 1 1 @bdcolor 1 1 1 1 @textcolor
0 0 0 1 @hocolor 0.5 0.5 0.5 1 @secolor 0.35 0.35 0.35 1;
#N canvas 429 244 450 300 clink 0;
#X obj 153 53 c.patcherinfos;
#X obj 73 58 bng 15 250 50 0 empty empty empty 17 7 0 10 -262144 -1
-1;
#X obj 73 33 inlet;
#X obj 193 106 c.prepend set;
#X symbolatom 193 140 10 0 0 0 - - -, f 10;
#X obj 286 54 c.patcherargs;
#X obj 286 88 unpack s s;
#X obj 193 173 pack s s;
#X msg 193 219 \; pd open \$2 \$1;
#X connect 0 1 3 0;
#X connect 1 0 4 0;
#X connect 2 0 1 0;
#X connect 3 0 4 0;
#X connect 4 0 7 0;
#X connect 5 0 6 0;
#X connect 6 1 7 1;
#X connect 7 0 8 0;
#X coords 0 300 1 299 10 10 0;
#X restore -16 41 pd clink c.number~-help.pd;
#X text -38 -41 Chocolate is a part of the Pd Enhanced Library;
#X obj 323 270 c.bang @size 16 16 @fontname helvetica @fontweight normal
@fontslant regular @fontsize 11 @idname (null) @bgcolor 0.75 0.75 0.75
1 @bdcolor 0.5 0.5 0.5 1 @bacolor 0 0 0 1;
#X connect 21 0 20 0;
#X connect 46 0 47 0;
