#N canvas 229 223 587 438 10;
#X obj -59 -122 cnv 40 552 40 empty empty c.rslider 3 12 0 18 -228856
-33289 0;
#X msg 344 28 set \$1;
#X obj 344 3 c.number @size 53 17 @fontname Helvetica @fontweight normal
@fontslant roman @fontsize 11 @receive (null) @send (null) @presetname
(null) @min (null) @max (null) @minmax (null) (null) @decimal 6 @bgcolor
0.75 0.75 0.75 1 @bdcolor 0.5 0.5 0.5 1 @textcolor 0 0 0 1;
#X obj 299 24 c.bang @size 16 16 @fontname Helvetica @fontweight normal
@fontslant roman @fontsize 11 @receive (null) @send (null) @bgcolor
0.75 0.75 0.75 1 @bdcolor 0.5 0.5 0.5 1 @bacolor 0 0 0 1;
#X text -47 290 Chocolate by Pierre Guillot | CICM - Université Paris
8;
#X text -57 -100 A horizontal or vertical range slider;
#X obj 30 37 c.number @size 53 17 @fontname Helvetica @fontweight normal
@fontslant roman @fontsize 11 @receive (null) @send (null) @presetname
(null) @min (null) @max (null) @minmax (null) (null) @decimal 6 @bgcolor
0.75 0.75 0.75 1 @bdcolor 0.5 0.5 0.5 1 @textcolor 0 0 0 1;
#X obj 197 37 c.number @size 53 17 @fontname Helvetica @fontweight
normal @fontslant roman @fontsize 11 @receive (null) @send (null) @presetname
(null) @min (null) @max (null) @minmax (null) (null) @decimal 6 @bgcolor
0.75 0.75 0.75 1 @bdcolor 0.5 0.5 0.5 1 @textcolor 0 0 0 1;
#X obj -5 85 c.rslider @size 207 26 @fontname Helvetica @fontweight
normal @fontslant roman @fontsize 11 @receive (null) @send (null) @presetname
(null) @listmode 0 @min 0 @max 1 @bgcolor 0.75 0.75 0.75 1 @bdcolor
0.5 0.5 0.5 1 @kncolor 0.5 0.5 0.5 1;
#X obj -5 147 c.number @size 53 17 @fontname Helvetica @fontweight
normal @fontslant roman @fontsize 11 @receive (null) @send (null) @presetname
(null) @min (null) @max (null) @minmax (null) (null) @decimal 6 @bgcolor
0.75 0.75 0.75 1 @bdcolor 0.5 0.5 0.5 1 @textcolor 0 0 0 1;
#X obj 197 147 c.number @size 53 17 @fontname Helvetica @fontweight
normal @fontslant roman @fontsize 11 @receive (null) @send (null) @presetname
(null) @min (null) @max (null) @minmax (null) (null) @decimal 6 @bgcolor
0.75 0.75 0.75 1 @bdcolor 0.5 0.5 0.5 1 @textcolor 0 0 0 1;
#X obj -5 37 pack;
#X obj -5 -9 c.number @size 53 17 @fontname Helvetica @fontweight normal
@fontslant roman @fontsize 11 @receive (null) @send (null) @presetname
(null) @min (null) @max (null) @minmax (null) (null) @decimal 6 @bgcolor
0.75 0.75 0.75 1 @bdcolor 0.5 0.5 0.5 1 @textcolor 0 0 0 1;
#X obj 60 -9 c.number @size 53 17 @fontname Helvetica @fontweight normal
@fontslant roman @fontsize 11 @receive (null) @send (null) @presetname
(null) @min (null) @max (null) @minmax (null) (null) @decimal 6 @bgcolor
0.75 0.75 0.75 1 @bdcolor 0.5 0.5 0.5 1 @textcolor 0 0 0 1;
#X obj 344 63 c.rslider @size 30 167 @fontname Helvetica @fontweight
normal @fontslant roman @fontsize 11 @receive (null) @send (null) @presetname
(null) @listmode 1 @min 0 @max 127 @bgcolor 1 0.505898 0 1 @bdcolor
1 0 0 1 @kncolor 0.505898 0 0 1;
#X obj -5 203 c.rslider @size 207 26 @fontname Helvetica @fontweight
normal @fontslant roman @fontsize 11 @receive (null) @send (null) @presetname
(null) @listmode 0 @min 1 @max 0 @bgcolor 0.403137 0.403137 1 1 @bdcolor
0 0 0.505898 1 @kncolor 0 0.252949 0.505898 1;
#X msg 425 26 set 45 78;
#X obj 344 238 c.prepend set;
#X msg 344 271 125.58 78;
#X text 22 244 Inversed boundaries;
#X text 379 187 List output mode;
#X text 130 -23 Click with shift to move the closest knob;
#X text -58 -79 c.rslider is the chocolate counterpart of the vanilla
hslider or vslider with two knobs.;
#X connect 1 0 14 0;
#X connect 2 0 1 0;
#X connect 3 0 14 0;
#X connect 6 0 8 0;
#X connect 7 0 8 1;
#X connect 8 0 9 0;
#X connect 8 1 10 0;
#X connect 9 0 15 0;
#X connect 10 0 15 1;
#X connect 11 0 8 0;
#X connect 12 0 11 0;
#X connect 13 0 11 1;
#X connect 14 0 17 0;
#X connect 16 0 14 0;
#X connect 17 0 18 0;
