#N canvas 463 172 599 290 10;
#X obj -40 -90 cnv 40 552 40 empty empty c.toggle 3 12 0 18 -228856
-33289 0;
#X obj 33 75 - 1;
#X obj 33 6 loadbang;
#X text -37 -68 A toggle... that's all.;
#X obj 33 46 c.toggle @size 15 15 @fontname helvetica @fontweight normal
@fontslant regular @fontsize 11 @idname (null) @presetname chocogll
@bgcolor 0.75 0.75 0.75 1 @bdcolor 0.5 0.5 0.5 1 @crcolor 0.5 0.5 0.5
1;
#X obj 33 108 c.toggle @size 45 45 @fontname helvetica @fontweight
normal @fontslant regular @fontsize 11 @idname (null) @presetname (null)
@bgcolor 0.75 0.75 0.75 1 @bdcolor 0.5 0.5 0.5 1 @crcolor 0.5 0.5 0.5
1;
#X text 44 169 Chocolate by Pierre Guillot | CICM - Université Paris
8;
#X obj 409 -79 c.tab @size 58 18 @fontname helvetica @fontweight normal
@fontslant regular @fontsize 11 @idname (null) @presetname (null) @orientation
0 @toggle 0 @items Chocolate @bgcolor 0.75 0.75 0.75 1 @bdcolor 0.5
0.5 0.5 1 @textcolor 0 0 0 1 @hocolor 0.5 0.5 0.5 1 @secolor 0.35 0.35
0.35 1;
#N canvas 429 244 450 300 clink 0;
#X obj 33 85 c.patcherinfos;
#X obj 73 58 bng 15 250 50 0 empty empty empty 17 7 0 10 -262144 -1
-1;
#X obj 73 33 inlet;
#X obj 73 119 c.prepend set;
#X msg 73 169 \; pd open @Chocolate.pd \$1;
#X symbolatom 73 141 10 0 0 0 - - -, f 10;
#X connect 0 1 3 0;
#X connect 1 0 5 0;
#X connect 2 0 1 0;
#X connect 3 0 5 0;
#X connect 5 0 4 0;
#X coords 0 300 1 299 70 25 0;
#X restore 411 -81 pd clink;
#X text -39 -46 c.toggle is the chocolate counterpart of the vanilla
toggle.;
#X connect 1 0 5 0;
#X connect 2 0 4 0;
#X connect 4 0 1 0;
#X connect 7 0 8 0;
