#N canvas 463 172 555 290 10;
#X obj -40 -77 cnv 40 552 40 empty empty cbang 3 12 0 18 -228856 -33289
0;
#X text 44 182 Pd Chocolate by Pierre Guillot | CICM - Université Paris
8;
#X text 295 -8 Futher information about chocolate;
#X obj 358 27 pdchocolate;
#X text -37 -55 A bang... that's all.;
#X text -39 -33 cbang do nothing more than vannila bng... sorry.;
#X obj 9 42 delay 500;
#X obj 9 12 cbang @size 15 15 @fontname helvetica @fontweight normal
@fontslant regular @fontsize 11 @idname (null) @bgcolor 0.75 0.75 0.75
1 @bdcolor 0.5 0.5 0.5 1 @bacolor 0 0 0 1;
#X obj 9 108 delay 500;
#X obj 9 78 cbang @size 15 15 @fontname helvetica @fontweight normal
@fontslant regular @fontsize 11 @idname (null) @bgcolor 0.75 0.75 0.75
1 @bdcolor 0.5 0.5 0.5 1 @bacolor 0 0 0 1;
#X obj 137 108 delay 500;
#X obj 137 78 cbang @size 15 15 @fontname helvetica @fontweight normal
@fontslant regular @fontsize 11 @idname (null) @bgcolor 0.75 0.75 0.75
1 @bdcolor 0.5 0.5 0.5 1 @bacolor 0 0 0 1;
#X obj 137 42 delay 500;
#X obj 137 12 cbang @size 15 15 @fontname helvetica @fontweight normal
@fontslant regular @fontsize 11 @idname (null) @bgcolor 0.75 0.75 0.75
1 @bdcolor 0.5 0.5 0.5 1 @bacolor 0 0 0 1;
#X connect 6 0 9 0;
#X connect 7 0 6 0;
#X connect 8 0 11 0;
#X connect 9 0 8 0;
#X connect 10 0 13 0;
#X connect 11 0 10 0;
#X connect 12 0 7 0;
#X connect 13 0 12 0;
