#N canvas 375 205 587 422 10;
#X obj -49 -74 cnv 40 552 40 empty empty cgain~ 3 12 0 18 -228856 -33289
0;
#X text 314 252 Futher information about chocolate;
#X text -37 308 Pd Chocolate by Pierre Guillot | CICM - Université
Paris 8;
#X obj -12 14 loadmess 0.3;
#X obj 314 277 pdchocolate;
#X obj -12 213 cnumber @size 53 17 @fontname helvetica @fontweight
normal @fontslant regular @fontsize 11 @idname (null) @presetname (null)
@min nan @max nan @decimal 6 @bgcolor 0.75 0.75 0.75 1 @bdcolor 0.5
0.5 0.5 1 @textcolor 0 0 0 1;
#X obj -12 45 cnumber @size 53 17 @fontname helvetica @fontweight normal
@fontslant regular @fontsize 11 @idname (null) @presetname (null) @min
0 @max 1 @decimal 6 @bgcolor 0.75 0.75 0.75 1 @bdcolor 0.5 0.5 0.5
1 @textcolor 0 0 0 1;
#X obj 335 77 cgain~ @size 160 20 @fontname helvetica @fontweight normal
@fontslant regular @fontsize 11 @idname (null) @presetname (null) @mode
0 @ramp 20 @bgcolor 0.75 0.75 0.75 1 @bdcolor 0.5 0.5 0.5 1 @kncolor
0.5 0.5 0.5 1;
#X obj 217 84 cgain~ @size 20 160 @fontname helvetica @fontweight normal
@fontslant regular @fontsize 11 @idname (null) @presetname (null) @mode
0 @ramp 20 @bgcolor 0.75 0.75 0.75 1 @bdcolor 0.5 0.5 0.5 1 @kncolor
0.5 0.5 0.5 1;
#X obj 232 252 cnumber @size 53 17 @fontname helvetica @fontweight
normal @fontslant regular @fontsize 11 @idname (null) @presetname (null)
@min nan @max nan @decimal 6 @bgcolor 0.75 0.75 0.75 1 @bdcolor 0.5
0.5 0.5 1 @textcolor 0 0 0 1;
#X obj 217 27 cnumber @size 53 17 @fontname helvetica @fontweight normal
@fontslant regular @fontsize 11 @idname (null) @presetname (null) @min
-90 @max 18 @decimal 6 @bgcolor 0.75 0.75 0.75 1 @bdcolor 0.5 0.5 0.5
1 @textcolor 0 0 0 1;
#X msg 160 53 linear \$1;
#X obj 111 12 cnumber @size 53 17 @fontname helvetica @fontweight normal
@fontslant regular @fontsize 11 @idname (null) @presetname (null) @min
0 @max nan @decimal 6 @bgcolor 0.75 0.75 0.75 1 @bdcolor 0.5 0.5 0.5
1 @textcolor 0 0 0 1;
#X obj 308 25 sig~ 1;
#X msg 76 123 \; pd dsp 1;
#X msg 10 123 \; pd dsp 0;
#X obj 164 281 cnumber~ @size 53 17 @fontname helvetica @fontweight
normal @fontslant regular @fontsize 11 @idname (null) @interval 50
@decimal 6 @bgcolor 0.75 0.75 0.75 1 @bdcolor 0.5 0.5 0.5 1 @textcolor
0 0 0 1;
#X obj 97 204 cmeter~ @size 13 85 @fontname helvetica @fontweight normal
@fontslant regular @fontsize 11 @idname (null) @interval 50 @bgcolor
0.75 0.75 0.75 1 @bdcolor 0.5 0.5 0.5 1 @coldcolor 0 0.6 0 0.8 @tepidcolor
0.6 0.73 0 0.8 @warmcolor 0.85 0.85 0 0.8 @hotcolor 1 0.6 0 0.8 @overcolor
1 0 0 0.8;
#X obj 309 145 noise~;
#X obj 329 218 dac~;
#X text -47 -52 A gain slider for signal;
#X text -48 -31 cgain~ is the pd chocolate's gain slider that allows
to control the volume of a signal in decibel.;
#X connect 3 0 6 0;
#X connect 8 0 16 0;
#X connect 8 0 17 0;
#X connect 8 0 19 0;
#X connect 8 1 9 0;
#X connect 10 0 8 0;
#X connect 11 0 8 0;
#X connect 12 0 11 0;
#X connect 13 0 8 0;
#X connect 18 0 8 0;
