#N canvas 520 205 587 422 10;
#X obj -49 -74 cnv 40 552 40 empty empty cradio 3 12 0 18 -228856 -33289
0;
#X text 314 252 Futher information about chocolate;
#X text -37 308 Pd Chocolate by Pierre Guillot | CICM - Université
Paris 8;
#X obj 354 277 pdchocolate;
#X obj -19 200 cnumber @size 53 17 @fontname helvetica @fontweight
normal @fontslant regular @fontsize 11 @idname (null) @presetname (null)
@min nan @max nan @decimal 6 @bgcolor 0.75 0.75 0.75 1 @bdcolor 0.5
0.5 0.5 1 @textcolor 0 0 0 1;
#X obj 236 240 prepend set;
#X msg 236 270 1 0 1 0 0;
#X obj -19 120 cnumber @size 53 17 @fontname helvetica @fontweight
normal @fontslant regular @fontsize 11 @idname (null) @presetname (null)
@min 0 @max 7 @decimal 0 @bgcolor 0.75 0.75 0.75 1 @bdcolor 0.5 0.5
0.5 1 @textcolor 0 0 0 1;
#X msg 55 119 set \$1;
#X obj 55 80 cnumber @size 53 17 @fontname helvetica @fontweight normal
@fontslant regular @fontsize 11 @idname (null) @presetname (null) @min
0 @max 7 @decimal 0 @bgcolor 0.75 0.75 0.75 1 @bdcolor 0.5 0.5 0.5
1 @textcolor 0 0 0 1;
#X obj -19 51 loadmess 0;
#X text -47 -52 A check list or radio buttons;
#X text -21 27 Radio button mode;
#X text 234 2 Check list mode;
#X msg 236 62 1 0 1 0 0;
#X obj 316 62 prepend set;
#X msg 316 32 0 1 0 1 1;
#X obj 236 32 loadbang;
#X obj 197 64 cbang @size 15 15 @fontname helvetica @fontweight normal
@fontslant regular @fontsize 11 @idname (null) @bgcolor 0.75 0.75 0.75
1 @bdcolor 0.5 0.5 0.5 1 @bacolor 0 0 0 1;
#X obj 236 125 cradio @size 15 80 @fontname helvetica @fontweight normal
@fontslant regular @fontsize 11 @idname (null) @presetname chocolist
@nitems 5 @mode 1 @bgcolor 0.75 0.75 0.75 1 @bdcolor 0.5 0.5 0.5 1
@itcolor 0.5 0.5 0.5 1;
#X obj 405 154 cpreset @size 33 16 @fontname helvetica @fontweight
normal @fontslant regular @fontsize 7 @idname (null) @bgcolor 0.75
0.75 0.75 1 @bdcolor 0.5 0.5 0.5 1 @textcolor 0 0 0 1 @emcolor 0.85
0.85 0.85 1 @stcolor 0.5 0.5 0.5 1 @secolor 0.15 0.15 0.15 1 @preset
[ @index 0 @chocodio radio float 3 @chocolist radio list 1 1 1 0 0
@index 1 @chocodio radio float 5 @chocolist radio list 0 1 1 1 0 ]
;
#X obj -19 161 cradio @size 140 15 @fontname helvetica @fontweight
normal @fontslant regular @fontsize 11 @idname (null) @presetname chocodio
@nitems 8 @mode 0 @bgcolor 0.75 0.75 0.75 1 @bdcolor 0.5 0.5 0.5 1
@itcolor 0.5 0.5 0.5 1;
#X text -48 -31 cradio is the pd chocolate's version of the vanilla
hradio and vradio.;
#X text 333 122 cradio is compatible with preset;
#X connect 5 0 6 0;
#X connect 7 0 21 0;
#X connect 8 0 21 0;
#X connect 9 0 8 0;
#X connect 10 0 7 0;
#X connect 10 0 9 0;
#X connect 14 0 19 0;
#X connect 15 0 19 0;
#X connect 16 0 15 0;
#X connect 17 0 14 0;
#X connect 18 0 19 0;
#X connect 19 0 5 0;
#X connect 21 0 4 0;
