#N canvas 463 172 555 290 10;
#X obj -40 -77 cnv 40 552 40 empty empty ctoggle 3 12 0 18 -228856
-33289 0;
#X text 44 182 Pd Chocolate by Pierre Guillot | CICM - Université Paris
8;
#X text 295 12 Futher information about chocolate;
#X obj 33 88 - 1;
#X obj 33 19 loadbang;
#X obj 358 47 pdchocolate;
#X text -37 -55 A toggle... that's all.;
#X text 216 89 Toggl have a preset function.;
#X obj 33 59 ctoggle @size 15 15 @fontname helvetica @fontweight normal
@fontslant regular @fontsize 11 @idname (null) @presetname chocogll
@bgcolor 0.75 0.75 0.75 1 @bdcolor 0.5 0.5 0.5 1 @crcolor 0.5 0.5 0.5
1;
#X obj 33 121 ctoggle @size 45 45 @fontname helvetica @fontweight normal
@fontslant regular @fontsize 11 @idname (null) @presetname (null) @bgcolor
0.75 0.75 0.75 1 @bdcolor 0.5 0.5 0.5 1 @crcolor 0.5 0.5 0.5 1;
#X obj 278 117 cpreset @size 35 17 @fontname helvetica @fontweight
normal @fontslant regular @fontsize 7 @idname (null) @bgcolor 0.75
0.75 0.75 1 @bdcolor 0.5 0.5 0.5 1 @textcolor 0 0 0 1 @emcolor 0.85
0.85 0.85 1 @stcolor 0.5 0.5 0.5 1 @secolor 0.15 0.15 0.15 1 @preset
[ @index 0 @chocogll ctoggle float 0 @index 1 @chocogll ctoggle float
1 ];
#X text -39 -33 ctoggle is the pd chocolate's version of the vanilla
toggle \, it just have the chocolate attributes and behaviors.;
#X connect 3 0 9 0;
#X connect 4 0 8 0;
#X connect 8 0 3 0;
