#N canvas 319 169 1032 455 10;
#X msg 55 6 \; pd dsp 1;
#X msg -11 6 \; pd dsp 0;
#X obj 63 91 nbx 5 14 -1e+37 1e+37 0 0 empty empty empty 0 -8 0 10
-262144 -1 -1 0.2 256;
#X obj -16 91 nbx 5 14 -1e+37 1e+37 0 0 empty empty empty 0 -8 0 10
-262144 -1 -1 20 256;
#X msg -16 113 interval \$1;
#X obj 63 181 nbx~ @size 67 17 @fontname helvetica @fontweight normal
@fontslant regular @fontsize 11 @mode 0 @interval 20 @decimal 4 @bgcolor
0.35 0.23 0.13 1 @bdcolor 0.27 0.21 0 1 @textcolor 1 1 1 1;
#X obj 63 114 osc~ 0.2;
#X obj 125 228 nbx 5 14 -1e+37 1e+37 0 0 empty empty empty 0 -8 0 10
-262144 -1 -1 -0.843433 256;
#X obj 63 253 nbx~ @size 80 17 @fontname helvetica @fontweight normal
@fontslant regular @fontsize 11 @mode 0 @interval 50 @decimal 4 @bgcolor
0.35 0.23 0.13 1 @bdcolor 0.27 0.21 0 1 @textcolor 1 1 1 1;
#X obj 245 181 nbx~ @size 79 17 @fontname helvetica @fontweight normal
@fontslant regular @fontsize 11 @mode 1 @interval 50 @decimal 4 @bgcolor
0.35 0.23 0.13 1 @bdcolor 0.27 0.21 0 1 @textcolor 1 1 1 1;
#X obj 295 228 nbx 5 14 -1e+37 1e+37 0 0 empty empty empty 0 -8 0 10
-262144 -1 -1 10 256;
#X obj 245 253 nbx~ @size 80 17 @fontname helvetica @fontweight normal
@fontslant regular @fontsize 11 @mode 0 @interval 50 @decimal 4 @bgcolor
0.35 0.23 0.13 1 @bdcolor 0.27 0.21 0 1 @textcolor 1 1 1 1;
#X text 194 13 Click on the triangle to change the mode;
#X text 359 159 Drag the number.;
#X text 359 179 The precision depends of where user drag.;
#X text 359 199 Use shift to increase the precision.;
#X obj 243 75 nbx 5 14 -1e+37 1e+37 0 0 empty empty empty 0 -8 0 10
-262144 -1 -1 10 256;
#X obj 313 75 nbx 5 14 -1e+37 1e+37 0 0 empty empty empty 0 -8 0 10
-262144 -1 -1 10 256;
#X msg 313 110 set \$1;
#X obj 213 110 bng 15 250 50 0 empty empty empty 17 7 0 10 -262144
-1 -1;
#X text 359 219 Click and write the number.;
#X text 359 259 Press esc to avoid the change.;
#X obj -40 -77 cnv 40 552 40 empty empty numbox~ 3 12 0 18 -228856
-33289 0;
#X text -37 -55 A number box with signal... or not.;
#X text -33 298 Pd Chocolate by Pierre Guillot | CICM - Université
Paris 8;
#X text 392 -31 Futher information about chocolate;
#X text 74 148 mode ~ : 0;
#X text 359 141 mode - : 1;
#X text -39 -34 numbox~ (nbx~ \, number~) is the pd chocolate's version
of the vanilla nbx.;
#X obj -16 70 loadmess 20;
#X obj 63 70 loadmess 0.2;
#X text -21 45 Tick interval (ms);
#X obj 243 44 loadmess 10;
#X text 446 66 Change the font size;
#X text 446 82 to change the height.;
#X text 359 239 Press enter ot tab to valid the number.;
#X obj 477 -5 pdchocolate;
#X connect 2 0 6 0;
#X connect 3 0 4 0;
#X connect 4 0 5 0;
#X connect 5 0 8 0;
#X connect 5 1 7 0;
#X connect 6 0 5 0;
#X connect 9 0 11 0;
#X connect 9 1 10 0;
#X connect 16 0 9 0;
#X connect 17 0 18 0;
#X connect 18 0 9 0;
#X connect 19 0 9 0;
#X connect 29 0 3 0;
#X connect 30 0 2 0;
#X connect 32 0 16 0;
#X connect 32 0 17 0;
