#N canvas 633 241 590 325 10;
#X obj -7 59 vu~ @patching_rect [ 4 4 85 13 ] @size [ 85 13 ] @interval
[ 50 ] @bgcolor [ 0.35 0.23 0.13 1 ] @bdcolor [ 0.27 0.21 0 1 ] @coldcolor
[ 0 0.6 0 0.8 ] @tepidcolor [ 0.6 0.73 0 0.8 ] @warmcolor [ 0.85 0.85
0 0.8 ] @hotcolor [ 1 0.6 0 0.8 ] @overcolor [ 1 0 0 0.8 ];
#X obj -19 -74 cnv 40 552 40 empty empty PdChocolate 3 12 0 18 -228856
-33289 0;
#X obj -6 20 nbx~ @patching_rect [ 4 4 55 17 ] @size [ 55 17 ] @mode
[ 1 ] @interval [ 50 ] @bgcolor [ 0.35 0.23 0.13 1 ] @bdcolor [ 0.27
0.21 0 1 ] @textcolor [ 1 1 1 1 ];
#X text -16 -52 A set of objects for those who want more than vanilla...
;
#X text 58 18 nbx~;
#X text 85 58 vu~;
#X msg 245 47 size \$1 \$2;
#X text 325 46 width and height;
#X text -18 -31 Pd chocolate use the Pd Enhanced library developed
to facilitate the creation and to improve signal and GUI.;
#X text -7 188 Pd Chocolate by Pierre Guillot | CICM - Université Paris
8;
#X text 245 14 All objects accept this messages :;
#X msg 245 77 bgcolor \$1 \$2 \$3;
#X msg 245 107 bdcolor \$1 \$2 \$3;
#X text 366 76 background color (rgb or rgba);
#X text 366 106 border box color (rgb or rgba);
#X obj -7 91 plane @patching_rect [ 4 4 80 80 ] @size [ 80 80 ] @point
[ 0 0 ] @bound [ -1 -1 1 1 ] @ptsize [ 5 ] @bgcolor [ 0.35 0.23 0.13
1 ] @bdcolor [ 0.27 0.21 0 1 ] @ptcolor [ 0.94 0.85 0.57 1 ];
#X text 82 124 plane;
