#N canvas 369 148 559 470 10;
#X obj -15 -74 cnv 40 552 40 empty empty plane 3 12 0 18 -228856 -33289
0;
#X text 280 265 Futher information about chocolate;
#X obj 283 288 pdchocolate;
#X text -3 368 Pd Chocolate by Pierre Guillot | CICM - Université Paris
8;
#X obj 9 133 plane @patching_rect [ 4 4 200 200 ] @size [ 200 200 ]
@point [ 0.475 0.385 ] @bound [ 0 0 1 1 ] @ptsize [ 5 ] @bgcolor [
0.35 0.23 0.13 1 ] @bdcolor [ 0.27 0.21 0 1 ] @ptcolor [ 0.94 0.85
0.57 1 ];
#X obj 9 44 nbx 5 14 -1e+37 1e+37 0 0 empty empty empty 0 -8 0 10 -262144
-1 -1 0.475 256;
#X obj 68 44 nbx 5 14 -1e+37 1e+37 0 0 empty empty empty 0 -8 0 10
-262144 -1 -1 0.385 256;
#X obj 9 89 pack 0 0;
#X obj 27 66 t b f;
#X obj 252 34 nbx 5 14 -1e+37 1e+37 0 0 empty empty empty 0 -8 0 10
-262144 -1 -1 0 256;
#X obj 275 54 nbx 5 14 -1e+37 1e+37 0 0 empty empty empty 0 -8 0 10
-262144 -1 -1 0 256;
#X obj 298 74 nbx 5 14 -1e+37 1e+37 0 0 empty empty empty 0 -8 0 10
-262144 -1 -1 0 256;
#X obj 321 94 nbx 5 14 -1e+37 1e+37 0 0 empty empty empty 0 -8 0 10
-262144 -1 -1 0 256;
#X msg 252 147 bound \$1 \$2 \$3 \$4;
#X obj 252 178 send plane;
#X obj 79 89 r plane;
#X obj 252 117 pack 0 0 1 1;
#X text -12 -52 A plane where you can move a point;
#X text -14 -31 plane allows you to move a point on a cartesian plane.
;
#X text 248 199 Boundaries can be inverted.;
#X obj 9 344 s x1;
#X obj 202 343 s y1;
#X obj 9 -5 r x1;
#X obj 68 -3 r y1;
#X msg 68 19 set \$1;
#X msg 9 19 set \$1;
#X obj 141 89 loadbang;
#X obj 407 121 nbx 5 14 -1e+37 1e+37 0 0 empty empty empty 0 -8 0 10
-262144 -1 -1 0 256;
#X msg 407 147 ptsize \$1;
#X connect 4 0 20 0;
#X connect 4 1 21 0;
#X connect 5 0 7 0;
#X connect 6 0 8 0;
#X connect 7 0 4 0;
#X connect 8 0 5 0;
#X connect 8 1 7 1;
#X connect 9 0 16 0;
#X connect 10 0 16 1;
#X connect 11 0 16 2;
#X connect 12 0 16 3;
#X connect 13 0 14 0;
#X connect 15 0 4 0;
#X connect 16 0 13 0;
#X connect 22 0 25 0;
#X connect 23 0 24 0;
#X connect 24 0 6 0;
#X connect 25 0 5 0;
#X connect 26 0 4 0;
#X connect 27 0 28 0;
#X connect 28 0 14 0;
