#N canvas 281 186 558 514 10;
#X obj -15 -74 cnv 40 552 40 empty empty plane 3 12 0 18 -228856 -33289
0;
#X text -3 388 Pd Chocolate by Pierre Guillot | CICM - Université Paris
8;
#X obj 9 143 plane @size 198 198 @fontname helvetica @fontweight normal
@fontslant regular @fontsize 11 @point 0 0 @bound -1 -1 1 1 @ptsize
5 @bgcolor 0.35 0.23 0.13 1 @bdcolor 0.27 0.21 0 1 @ptcolor 0.94 0.85
0.57 1;
#X obj 9 54 nbx 5 14 -1e+37 1e+37 0 0 empty empty empty 0 -8 0 10 -262144
-1 -1 0 256;
#X obj 68 54 nbx 5 14 -1e+37 1e+37 0 0 empty empty empty 0 -8 0 10
-262144 -1 -1 0 256;
#X obj 9 99 pack 0 0;
#X obj 27 76 t b f;
#X obj 79 99 r plane;
#X text -12 -52 A plane where you can move a point;
#X obj 9 354 s x1;
#X obj 202 353 s y1;
#X obj 9 5 r x1;
#X obj 68 7 r y1;
#X msg 68 29 set \$1;
#X msg 9 29 set \$1;
#X obj 141 99 loadbang;
#X text -14 -31 plane (pictslider) allows you to move a point on a
cartesian plane.;
#X msg 361 221 bound \$1 \$2 \$3 \$4;
#X obj 361 250 s plane;
#X text 295 285 Futher information about chocolate;
#X obj 361 185 pack 0 0 0 0;
#X obj 299 106 nbx 4 14 -1e+37 1e+37 0 0 empty empty empty 0 -8 0 10
-262144 -1 -1 -1 256;
#X obj 352 107 nbx 3 14 -1e+37 1e+37 0 0 empty empty empty 0 -8 0 10
-262144 -1 -1 -1 256;
#X obj 405 107 nbx 3 14 -1e+37 1e+37 0 0 empty empty empty 0 -8 0 10
-262144 -1 -1 1 256;
#X obj 458 107 nbx 3 14 -1e+37 1e+37 0 0 empty empty empty 0 -8 0 10
-262144 -1 -1 1 256;
#X text 296 5 Change the boundaries :;
#X text 296 25 x min \, y min \, x max \, y max;
#X obj 458 130 t b f;
#X obj 405 129 t b f;
#X obj 352 129 t b f;
#X obj 299 48 loadmess -1;
#X obj 405 48 loadmess 1;
#X obj 353 312 pdchocolate;
#X connect 2 0 9 0;
#X connect 2 1 10 0;
#X connect 3 0 5 0;
#X connect 4 0 6 0;
#X connect 5 0 2 0;
#X connect 6 0 3 0;
#X connect 6 1 5 1;
#X connect 7 0 2 0;
#X connect 11 0 14 0;
#X connect 12 0 13 0;
#X connect 13 0 4 0;
#X connect 14 0 3 0;
#X connect 15 0 2 0;
#X connect 17 0 18 0;
#X connect 20 0 17 0;
#X connect 21 0 20 0;
#X connect 22 0 29 0;
#X connect 23 0 28 0;
#X connect 24 0 27 0;
#X connect 27 0 20 0;
#X connect 27 1 20 3;
#X connect 28 0 20 0;
#X connect 28 1 20 2;
#X connect 29 0 20 0;
#X connect 29 1 20 1;
#X connect 30 0 21 0;
#X connect 30 0 22 0;
#X connect 31 0 24 0;
#X connect 31 0 23 0;
