#N canvas 646 135 558 514 10;
#X obj -15 -74 cnv 40 552 40 empty empty plane 3 12 0 18 -228856 -33289
0;
#X text -3 368 Pd Chocolate by Pierre Guillot | CICM - Université Paris
8;
#X obj 9 133 plane @size 198 198 @fontname helvetica @fontweight normal
@fontslant regular @fontsize 11 @point 0.363636 0.151515 @bound 1 1
-1 -1 @ptsize 5 @bgcolor 0.35 0.23 0.13 1 @bdcolor 0.27 0.21 0 1 @ptcolor
0.94 0.85 0.57 1;
#X obj 9 44 nbx 5 14 -1e+37 1e+37 0 0 empty empty empty 0 -8 0 10 -262144
-1 -1 0.363636 256;
#X obj 68 44 nbx 5 14 -1e+37 1e+37 0 0 empty empty empty 0 -8 0 10
-262144 -1 -1 0.151515 256;
#X obj 9 89 pack 0 0;
#X obj 27 66 t b f;
#X obj 79 89 r plane;
#X text -12 -52 A plane where you can move a point;
#X text -14 -31 plane allows you to move a point on a cartesian plane.
;
#X obj 9 344 s x1;
#X obj 202 343 s y1;
#X obj 9 -5 r x1;
#X obj 68 -3 r y1;
#X msg 68 19 set \$1;
#X msg 9 19 set \$1;
#X obj 141 89 loadbang;
#X connect 2 0 10 0;
#X connect 2 1 11 0;
#X connect 3 0 5 0;
#X connect 4 0 6 0;
#X connect 5 0 2 0;
#X connect 6 0 3 0;
#X connect 6 1 5 1;
#X connect 7 0 2 0;
#X connect 12 0 15 0;
#X connect 13 0 14 0;
#X connect 14 0 4 0;
#X connect 15 0 3 0;
#X connect 16 0 2 0;
