#N canvas 256 94 559 414 10;
#X obj -15 -74 cnv 40 552 40 empty empty vu~ 3 12 0 18 -228856 -33289
0;
#X text -12 -52 A peak programme meter for signal;
#X text -14 -31 vu~ (meter~) is the pd chocolate's version of the vanilla
vu.;
#X text 280 235 Futher information about chocolate;
#X obj 283 258 pdchocolate;
#X text -3 308 Pd Chocolate by Pierre Guillot | CICM - Université Paris
8;
#X obj 98 84 plane @patching_rect [ 4 4 55 55 ] @size [ 55 55 ] @point
[ 0 0 ] @bgcolor [ 0.35 0.23 0.13 1 ] @bdcolor [ 0.27 0.21 0 1 ] @ptcolor
[ 1 1 1 1 ];
