#N canvas 281 186 558 514 10;
#X obj -15 -74 cnv 40 552 40 empty empty plane 3 12 0 18 -228856 -33289
0;
#X text -3 388 Pd Chocolate by Pierre Guillot | CICM - Université Paris
8;
#X obj 9 99 pack 0 0;
#X obj 27 79 t b f;
#X obj 79 99 r plane;
#X text -12 -52 A plane where you can move a point;
#X obj 9 354 s x1;
#X obj 204 353 s y1;
#X obj 9 5 r x1;
#X obj 68 7 r y1;
#X msg 68 29 set \$1;
#X msg 9 29 set \$1;
#X text -14 -31 plane (pictslider) allows you to move a point on a
cartesian plane.;
#X obj 361 250 s plane;
#X text 295 285 Futher information about chocolate;
#X obj 361 185 pack 0 0 0 0;
#X text 296 5 Change the boundaries :;
#X text 296 25 x min \, y min \, x max \, y max;
#X obj 458 130 t b f;
#X obj 405 129 t b f;
#X obj 352 129 t b f;
#X obj 281 48 loadmess -1;
#X obj 399 48 loadmess 1;
#X obj 353 312 pdchocolate;
#X obj 9 140 plane @size 200 200 @fontname helvetica @fontweight normal
@fontslant regular @fontsize 11 @idname (null) @presetname (null) @bound
-1 -1 1 1 @ptsize 5 @bgcolor 0.75 0.75 0.75 1 @bdcolor 0.5 0.5 0.5
1 @ptcolor 0 0 0 1;
#X obj 68 54 number @size 53 17 @fontname helvetica @fontweight normal
@fontslant regular @fontsize 11 @idname (null) @presetname (null) @min
nan @max nan @decimal 6 @bgcolor 0.75 0.75 0.75 1 @bdcolor 0.5 0.5
0.5 1 @textcolor 0 0 0 1;
#X obj 9 54 number @size 53 17 @fontname helvetica @fontweight normal
@fontslant regular @fontsize 11 @idname (null) @presetname (null) @min
nan @max nan @decimal 6 @bgcolor 0.75 0.75 0.75 1 @bdcolor 0.5 0.5
0.5 1 @textcolor 0 0 0 1;
#X obj 340 100 number @size 53 17 @fontname helvetica @fontweight normal
@fontslant regular @fontsize 11 @idname (null) @presetname (null) @min
nan @max nan @decimal 6 @bgcolor 0.75 0.75 0.75 1 @bdcolor 0.5 0.5
0.5 1 @textcolor 0 0 0 1;
#X obj 281 100 number @size 53 17 @fontname helvetica @fontweight normal
@fontslant regular @fontsize 11 @idname (null) @presetname (null) @min
nan @max nan @decimal 6 @bgcolor 0.75 0.75 0.75 1 @bdcolor 0.5 0.5
0.5 1 @textcolor 0 0 0 1;
#X obj 458 100 number @size 53 17 @fontname helvetica @fontweight normal
@fontslant regular @fontsize 11 @idname (null) @presetname (null) @min
nan @max nan @decimal 6 @bgcolor 0.75 0.75 0.75 1 @bdcolor 0.5 0.5
0.5 1 @textcolor 0 0 0 1;
#X obj 399 100 number @size 53 17 @fontname helvetica @fontweight normal
@fontslant regular @fontsize 11 @idname (null) @presetname (null) @min
nan @max nan @decimal 6 @bgcolor 0.75 0.75 0.75 1 @bdcolor 0.5 0.5
0.5 1 @textcolor 0 0 0 1;
#X obj 361 216 prepend bound;
#X connect 2 0 24 0;
#X connect 3 0 26 0;
#X connect 3 1 2 1;
#X connect 4 0 24 0;
#X connect 8 0 11 0;
#X connect 9 0 10 0;
#X connect 10 0 25 0;
#X connect 11 0 26 0;
#X connect 15 0 31 0;
#X connect 18 0 15 0;
#X connect 18 1 15 3;
#X connect 19 0 15 0;
#X connect 19 1 15 2;
#X connect 20 0 15 0;
#X connect 20 1 15 1;
#X connect 21 0 28 0;
#X connect 21 0 27 0;
#X connect 22 0 30 0;
#X connect 22 0 29 0;
#X connect 24 0 6 0;
#X connect 24 1 7 0;
#X connect 25 0 3 0;
#X connect 26 0 2 0;
#X connect 27 0 20 0;
#X connect 28 0 15 0;
#X connect 29 0 18 0;
#X connect 30 0 19 0;
#X connect 31 0 13 0;
