#N canvas 31 154 1407 598 10;
#X obj 27 193 c.blackboard @size 200 200 @fontname Helvetica @fontweight
normal @fontslant roman @fontsize 11 @receive (null) @send (null) @chalkmode
1 @bgcolor 0.75 0.75 0.75 1 @bdcolor 0.5 0.5 0.5 1;
#X obj 124 434 c.number @size 53 17 @fontname Helvetica @fontweight
normal @fontslant roman @fontsize 11 @receive (null) @send (null) @presetname
(null) @min (null) @max (null) @minmax (null) (null) @decimal 6 @bgcolor
0.75 0.75 0.75 1 @bdcolor 0.5 0.5 0.5 1 @textcolor 0 0 0 1;
#X obj 222 432 c.toggle @size 15 15 @fontname Helvetica @fontweight
normal @fontslant roman @fontsize 11 @receive (null) @send (null) @presetname
(null) @bgcolor 0.75 0.75 0.75 1 @bdcolor 0.5 0.5 0.5 1 @crcolor 0.5
0.5 0.5 1;
#X obj 124 398 unpack;
#X obj 157 464 c.number @size 53 17 @fontname Helvetica @fontweight
normal @fontslant roman @fontsize 11 @receive (null) @send (null) @presetname
(null) @min (null) @max (null) @minmax (null) (null) @decimal 6 @bgcolor
0.75 0.75 0.75 1 @bdcolor 0.5 0.5 0.5 1 @textcolor 0 0 0 1;
#X obj 27 434 c.number @size 53 17 @fontname Helvetica @fontweight
normal @fontslant roman @fontsize 11 @receive (null) @send (null) @presetname
(null) @min (null) @max (null) @minmax (null) (null) @decimal 6 @bgcolor
0.75 0.75 0.75 1 @bdcolor 0.5 0.5 0.5 1 @textcolor 0 0 0 1;
#X obj 27 398 unpack;
#X obj 60 464 c.number @size 53 17 @fontname Helvetica @fontweight
normal @fontslant roman @fontsize 11 @receive (null) @send (null) @presetname
(null) @min (null) @max (null) @minmax (null) (null) @decimal 6 @bgcolor
0.75 0.75 0.75 1 @bdcolor 0.5 0.5 0.5 1 @textcolor 0 0 0 1;
#X msg 125 101 clear;
#X msg 27 101 reset;
#X obj 188 97 c.number @size 53 17 @fontname Helvetica @fontweight
normal @fontslant roman @fontsize 11 @receive (null) @send (null) @presetname
(null) @min 1 @max 4.29497e+09 @minmax 1 4.29497e+09 @decimal 0 @bgcolor
0.75 0.75 0.75 1 @bdcolor 0.5 0.5 0.5 1 @textcolor 0 0 0 1;
#X obj 264 65 c.colorpanel @size 121 65 @fontname Helvetica @fontweight
normal @fontslant roman @fontsize 11 @receive (null) @send (null) @presetname
(null) @matrix 10 8 @reverse 0 @saturation 1 @hue 0 @lightness 1 @bgcolor
0.75 0.75 0.75 1 @bdcolor 0.5 0.5 0.5 1;
#X text -24 -31 c.blackboard allows to draw lines with the mouse and
to create shapes on a blackboard.;
#X msg 188 130 width \$1;
#X msg 264 149 color rgb \$1 \$2 \$3;
#X obj 428 195 c.blackboard @size 200 200 @fontname Helvetica @fontweight
normal @fontslant roman @fontsize 11 @receive (null) @send (null) @chalkmode
0 @bgcolor 0.75 0.75 0.75 1 @bdcolor 0.5 0.5 0.5 1;
#X msg 428 97 clear;
#X text 114 66 Erase the;
#X text 114 76 blackboard;
#X text 184 66 Set the;
#X text 184 76 chalk width;
#X text 274 175 Set the chalk;
#X text 4 66 Erase and reset;
#X text 4 76 the defualt chalk;
#X text 243 430 Mouse click;
#X text 128 480 Hover mouse;
#X text 128 490 coordinates;
#X text 28 490 coordinates;
#X text 28 480 Dragging mouse;
#X text 15 18 Draw with the mouse (chalkmode);
#X text 435 18 Draw shapes with messages;
#X obj 746 89 c.menu @size 46 17 @fontname Helvetica @fontweight normal
@fontslant roman @fontsize 11 @receive (null) @send (null) @presetname
(null) @hover 0 @items line rect oval @states 0 0 0 @bgcolor 0.75 0.75
0.75 1 @bdcolor 0.5 0.5 0.5 1 @textcolor 0 0 0 1;
#X msg 474 130 fill \$1;
#X obj 474 99 c.toggle @size 15 15 @fontname Helvetica @fontweight
normal @fontslant roman @fontsize 11 @receive (null) @send (null) @presetname
(null) @bgcolor 0.75 0.75 0.75 1 @bdcolor 0.5 0.5 0.5 1 @crcolor 0.5
0.5 0.5 1;
#X text 462 64 Active;
#X text 462 74 filling;
#X obj 533 96 c.number @size 53 17 @fontname Helvetica @fontweight
normal @fontslant roman @fontsize 11 @receive (null) @send (null) @presetname
(null) @min 1 @max 4.29497e+09 @minmax 1 4.29497e+09 @decimal 0 @bgcolor
0.75 0.75 0.75 1 @bdcolor 0.5 0.5 0.5 1 @textcolor 0 0 0 1;
#X msg 533 129 width \$1;
#X obj 609 78 c.colorpanel @size 121 65 @fontname Helvetica @fontweight
normal @fontslant roman @fontsize 11 @receive (null) @send (null) @presetname
(null) @matrix 10 8 @reverse 0 @saturation 1 @hue 0 @lightness 1 @bgcolor
0.75 0.75 0.75 1 @bdcolor 0.5 0.5 0.5 1;
#X msg 605 159 color hsl \$1 \$2 \$3;
#X obj 808 87 c.number @size 53 17 @fontname Helvetica @fontweight
normal @fontslant roman @fontsize 11 @receive (null) @send (null) @presetname
(null) @min 0 @max 200 @minmax 0 200 @decimal 0 @bgcolor 0.75 0.75
0.75 1 @bdcolor 0.5 0.5 0.5 1 @textcolor 0 0 0 1;
#X obj 830 61 c.number @size 53 17 @fontname Helvetica @fontweight
normal @fontslant roman @fontsize 11 @receive (null) @send (null) @presetname
(null) @min 0 @max 200 @minmax 0 200 @decimal 0 @bgcolor 0.75 0.75
0.75 1 @bdcolor 0.5 0.5 0.5 1 @textcolor 0 0 0 1;
#X obj 852 111 c.number @size 53 17 @fontname Helvetica @fontweight
normal @fontslant roman @fontsize 11 @receive (null) @send (null) @presetname
(null) @min 0 @max 200 @minmax 0 200 @decimal 0 @bgcolor 0.75 0.75
0.75 1 @bdcolor 0.5 0.5 0.5 1 @textcolor 0 0 0 1;
#X obj 874 87 c.number @size 53 17 @fontname Helvetica @fontweight
normal @fontslant roman @fontsize 11 @receive (null) @send (null) @presetname
(null) @min 0 @max 200 @minmax 0 200 @decimal 0 @bgcolor 0.75 0.75
0.75 1 @bdcolor 0.5 0.5 0.5 1 @textcolor 0 0 0 1;
#X text 779 13 Set the coordinates;
#X obj 765 167 c.bang @size 17 17 @fontname Helvetica @fontweight normal
@fontslant roman @fontsize 11 @receive (null) @send (null) @bgcolor
0.75 0.75 0.75 1 @bdcolor 0.5 0.5 0.5 1 @bacolor 0 0 0 1;
#X msg 787 192 line 4.5 1.8 128 128;
#X text 779 23 and the shape then bang;
#X text 669 223 Other shapes;
#X text 669 243 path x1 y1 x2 y2 etc.;
#X text 669 303 arc x1 y1 x2 y2 startangle extendangle;
#X msg 672 326 fill 0 \, width 4 \, color hex #D40083 \, arc 10 20
120 80 45 180;
#X msg 670 266 fill 1 \, color hsl 0.4 1 0.428571 \, path 70 10 130
110 160 80 150 30 70 110;
#X obj 1053 155 c.blackboard @size 200 281 @fontname Helvetica @fontweight
normal @fontslant roman @fontsize 11 @receive (null) @send (null) @chalkmode
0 @bgcolor 0.75 0.75 0.75 1 @bdcolor 0.5 0.5 0.5 1;
#X msg 994 96 clear;
#X msg 1069 88 image 0 0 image2.gif \, text 60 10 LHOOQ;
#X msg 1053 54 image 0 0 image1.gif \, text 60 10 La Joconde;
#X text 642 375 Coordinates are top left (x1 \, y1) and bottom right
(x2 \, y2);
#X text 934 449 Font name \, size \, weight and slant depend of the
object properties.;
#X text 1045 18 Paint gif images and write text;
#X text 274 185 color with rgb;
#X text 274 195 hsl or hex.;
#X text 529 65 Set the;
#X text 529 75 chalk width;
#X text 632 37 Set the chalk;
#X text 632 47 color with rgb;
#X text 632 57 hsl or hex.;
#X obj 787 138 c.pak s f f f f;
#X obj 787 164 c.prepend set;
#N canvas 390 84 722 277 what 0;
#X msg 595 99 attrprint;
#X text 29 -5 - Look at the properties window to edit the attributes.
Use the attrprint message to post the attributes characteristics.;
#X text 29 96 - The inlets and outlets are hidden with the "run mode".
;
#X text 29 198 - Some objects are very similar to the vanilla ones
but they're compatible with the preset and will be a part of a global
system to write time events.;
#X text 29 122 - Drag the border (bottom or right) or the corner (bottom-right)
of the box to resize the objects. Sometimes the width or the height
depends of the font size.;
#X text 29 168 -The popup menu (for attributes and help) is only available
with the "edit mode";
#X text 29 35 "Name" is the message that the object is expecting to
edit the attribute \, "Type" is the type of the values (float \, symbol
\, etc...) and "Size" is the number of values the object is expecting.
;
#X obj 516 73 c.number @size 53 17 @fontname Helvetica @fontweight
normal @fontslant roman @fontsize 11 @receive (null) @send (null) @presetname
(null) @min 64 @max (null) @minmax 64 (null) @decimal 6 @bgcolor 0.75
0.75 0.75 1 @bdcolor 0.5 0.5 0.5 1 @textcolor 0 0 0 1;
#X obj 516 142 c.radio @size 64 8 @fontname Helvetica @fontweight normal
@fontslant roman @fontsize 11 @receive (null) @send (null) @presetname
(null) @nitems 8 @mode 0 @bgcolor 0.75 0.75 0.75 1 @bdcolor 0.5 0.5
0.5 1 @itcolor 0.5 0.5 0.5 1;
#X msg 516 102 size \$1 8;
#X text 513 45 Example;
#X obj 446 73 c.number @size 53 17 @fontname Helvetica @fontweight
normal @fontslant roman @fontsize 11 @receive (null) @send (null) @presetname
(null) @min 1 @max (null) @minmax 1 (null) @decimal 6 @bgcolor 0.75
0.75 0.75 1 @bdcolor 0.5 0.5 0.5 1 @textcolor 0 0 0 1;
#X msg 446 102 nitems \$1;
#X connect 0 0 8 0;
#X connect 7 0 9 0;
#X connect 9 0 8 0;
#X connect 11 0 12 0;
#X connect 12 0 8 0;
#X restore 605 -51 pd what you can do with GUI;
#X obj 451 444 c.help.pub;
#X obj -21 -56 c.patcherinfos;
#X obj -20 -65 c.loadmess;
#X obj -26 -77 c.help.header;
#X connect 0 0 6 0;
#X connect 0 1 3 0;
#X connect 0 2 2 0;
#X connect 3 0 1 0;
#X connect 3 1 4 0;
#X connect 6 0 5 0;
#X connect 6 1 7 0;
#X connect 8 0 0 0;
#X connect 9 0 0 0;
#X connect 10 0 13 0;
#X connect 11 0 14 0;
#X connect 13 0 0 0;
#X connect 14 0 0 0;
#X connect 16 0 15 0;
#X connect 31 1 67 0;
#X connect 32 0 15 0;
#X connect 33 0 32 0;
#X connect 36 0 37 0;
#X connect 37 0 15 0;
#X connect 38 1 39 0;
#X connect 39 0 15 0;
#X connect 40 0 67 1;
#X connect 41 0 67 2;
#X connect 42 0 67 3;
#X connect 43 0 67 4;
#X connect 45 0 46 0;
#X connect 46 0 15 0;
#X connect 51 0 15 0;
#X connect 52 0 15 0;
#X connect 54 0 53 0;
#X connect 55 0 53 0;
#X connect 56 0 53 0;
#X connect 67 0 68 0;
#X connect 68 0 46 0;
#X connect 71 0 73 0;
#X connect 72 0 71 0;
