#N canvas 311 160 729 408 10;
#X obj -25 -74 cnv 40 552 40 empty empty c.patcherinfos 3 12 0 18 -228856
-33289 0;
#X obj 57 21 c.bang @size 16 16 @fontname helvetica @fontweight normal
@fontslant regular @fontsize 11 @idname (null) @bgcolor 0.75 0.75 0.75
1 @bdcolor 0.5 0.5 0.5 1 @bacolor 0 0 0 1;
#X text -22 -52 An object that retrieve the patcher informations;
#X obj 57 52 c.patcherinfos;
#X obj 57 79 c.prepend set;
#X obj 196 79 c.prepend set;
#X obj 336 79 c.prepend set;
#X text -24 -31 c.patcherinfos retrieves the name \, the path and coordinates
of the patcher.;
#X text -13 308 Coffee by Pierre Guillot | CICM - Université Paris
8;
#X text 85 21 Bang or double click;
#N canvas 565 264 610 300 subpatch 0;
#X obj 67 31 c.bang @size 16 16 @fontname helvetica @fontweight normal
@fontslant regular @fontsize 11 @idname (null) @bgcolor 0.75 0.75 0.75
1 @bdcolor 0.5 0.5 0.5 1 @bacolor 0 0 0 1;
#X obj 67 62 c.patcherinfos;
#X obj 67 89 c.prepend set;
#X obj 206 89 c.prepend set;
#X obj 346 89 c.prepend set;
#X text 95 31 Bang or double click;
#X msg 206 155;
#X msg 346 125;
#X msg 67 185;
#X connect 0 0 1 0;
#X connect 1 0 2 0;
#X connect 1 1 3 0;
#X connect 1 2 4 0;
#X connect 2 0 8 0;
#X connect 3 0 6 0;
#X connect 4 0 7 0;
#X restore 356 205 pd subpatch;
#X msg 57 175;
#X msg 196 145;
#X msg 336 115;
#X connect 1 0 3 0;
#X connect 3 0 4 0;
#X connect 3 1 5 0;
#X connect 3 2 6 0;
#X connect 4 0 11 0;
#X connect 5 0 12 0;
#X connect 6 0 13 0;
