#N canvas 244 303 899 504 10;
#X obj -19 -64 cnv 40 552 40 empty empty PdCoffee 3 12 0 18 -228856
-33289 0;
#X text 93 63 loadmess;
#X text 369 123 -;
#X obj -2 63 loadmess coffee;
#X obj 566 -48 pddplink https://github.com/pierreguillot/PdEnhanced
;
#X text -16 -42 A set of objects for those who like vanilla...;
#X text -7 394 Pd Chocolate by Pierre Guillot | CICM - Université Paris
8;
#X text -7 394 Pd Chocolate by Pierre Guillot | CICM - Université Paris
8;
#X text 264 -42 but can't stay awake;
#X text -18 -21 Pd Coffe is a part of the Pd Enhanced library developed
to facilitate the creation of signal objects and GUI and to improve
user interactions.;
#X obj 36 107 pak s f s f;
#X text 111 107 pak;
