#N canvas 244 303 899 504 10;
#X obj -19 -64 cnv 40 552 40 empty empty PdCoffee 3 12 0 18 -228856
-33289 0;
#X text 93 63 loadmess;
#X obj -2 63 loadmess coffee;
#X obj 566 -48 pddplink https://github.com/pierreguillot/PdEnhanced
;
#X text -16 -42 A set of objects for those who like vanilla...;
#X text -7 394 Pd Chocolate by Pierre Guillot | CICM - Université Paris
8;
#X text 264 -42 but can't stay awake;
#X obj 36 97 pak s f s f;
#X obj 71 130 prepend caramel;
#X text 111 97 pak;
#X text 170 130 prepend;
#X obj 106 164 patcherargs;
#X text 180 165 patcherargs;
#X obj 71 197 patcherinfos;
#X text 150 197 patcherinfos;
#X text -18 -21 Pd Coffee is a part of the Pd Enhanced library developed
to facilitate the creation of signal objects and GUI and to improve
user interactions.;
