#N canvas 436 257 559 414 10;
#X obj -25 -74 cnv 1 552 40 empty empty c.loadmess 3 12 0 18 -228856
-33289 0;
#X symbolatom 79 122 10 0 0 0 - - -, f 10;
#X text 360 112 Change the value and bang.;
#X text -22 -52 A loadbang for float \, symbol and list.;
#X text -19 162 With no arguments loadmess is a loadbang;
#X msg 153 87 set Morrison;
#X text 255 5 Bang the loadmess;
#X text 34 29 Dblclick bang the loadmess;
#X text 264 148 List example;
#X obj 300 113 c.number @size 53 17 @fontname helvetica @fontweight
normal @fontslant regular @fontsize 11 @idname (null) @presetname (null)
@min (null) @max (null) @decimal 6 @bgcolor 0.75 0.75 0.75 1 @bdcolor
0.5 0.5 0.5 1 @textcolor 0 0 0 1;
#X obj 300 30 c.bang @size 16 16 @fontname helvetica @fontweight normal
@fontslant regular @fontsize 11 @idname (null) @bgcolor 0.75 0.75 0.75
1 @bdcolor 0.5 0.5 0.5 1 @bacolor 0 0 0 1;
#X obj 47 229 c.toggle @size 15 15 @fontname helvetica @fontweight
normal @fontslant regular @fontsize 11 @idname (null) @presetname (null)
@bgcolor 0.75 0.75 0.75 1 @bdcolor 0.5 0.5 0.5 1 @crcolor 0.5 0.5 0.5
1;
#X obj 266 212 prepend set;
#X msg 266 242 John Lennon love 1968;
#X obj 79 60 c.loadmess Hendrix;
#X obj 300 67 c.loadmess 3.14169;
#X obj 266 171 c.loadmess John Lennon love 1968;
#X obj 47 190 c.loadmess;
#X text -24 -31 c.loadmess is the pd coffee's version of the vanilla
loadbang that accepts arguments (float \, symbol and list).;
#X text -13 308 Coffee by Pierre Guillot | CICM - Université Paris
8;
#X obj 419 -64 c.tab @size 58 18 @fontname helvetica @fontweight normal
@fontslant regular @fontsize 11 @idname (null) @presetname (null) @orientation
0 @toggle 0 @items Coffee @bgcolor 0.75 0.75 0.75 1 @bdcolor 0.5 0.5
0.5 1 @textcolor 0 0 0 1 @hocolor 0.5 0.5 0.5 1 @secolor 0.35 0.35
0.35 1;
#N canvas 429 244 450 300 clink 0;
#X obj 33 85 c.patcherinfos;
#X obj 73 58 bng 15 250 50 0 empty empty empty 17 7 0 10 -262144 -1
-1;
#X obj 73 33 inlet;
#X obj 73 119 c.prepend set;
#X symbolatom 73 141 10 0 0 0 - - -, f 10;
#X msg 73 169 \; pd open @Coffee.pd \$1;
#X connect 0 1 3 0;
#X connect 1 0 4 0;
#X connect 2 0 1 0;
#X connect 3 0 4 0;
#X connect 4 0 5 0;
#X coords 0 300 1 299 70 25 0;
#X restore 420 -65 pd clink;
#X connect 5 0 1 0;
#X connect 10 0 15 0;
#X connect 12 0 13 0;
#X connect 14 0 1 0;
#X connect 15 0 9 0;
#X connect 16 0 12 0;
#X connect 17 0 11 0;
#X connect 20 0 21 0;
