#N canvas 382 258 735 420 10;
#X obj -135 -73 cnv 40 552 40 empty empty c.prepend 3 12 0 18 -228856
-33289 0;
#X text 205 274 Futher information about chocolate;
#X obj 200 71 c.bang @size 16 16 @fontname helvetica @fontweight normal
@fontslant regular @fontsize 11 @idname (null) @bgcolor 0.75 0.75 0.75
1 @bdcolor 0.5 0.5 0.5 1 @bacolor 0 0 0 1;
#X text -134 -51 Prepend a float \, symbol or list to a message;
#X text -134 -31 prepend is the pd coffe's version of the vanilla combinaison
of list trim and list prepend.;
#X symbolatom 62 70 10 0 0 0 - - -, f 10;
#X msg 350 69 2 3 5 8 13;
#X msg -93 45 set He's;
#X msg -93 75 set You're;
#X text -122 16 Change the prepend message;
#X msg 200 203 bim bam boum bang;
#X msg 350 203 1 2 3 5 8 13;
#X text 19 46 Send a symbol or a float;
#X text 181 46 Send a bang;
#X text 342 46 Send a list;
#X msg 62 203 He's your father;
#X msg -93 105 set We are;
#X obj 62 142 c.prepend I'm;
#X obj 62 168 c.prepend set;
#X obj 200 142 c.prepend bim bam boum;
#X obj 200 168 c.prepend set;
#X obj 350 142 c.prepend 1;
#X obj 350 168 c.prepend set;
#X text -123 308 Coffee by Pierre Guillot | CICM - Université Paris
8;
#X obj 309 -64 c.tab @size 58 18 @fontname helvetica @fontweight normal
@fontslant regular @fontsize 11 @idname (null) @presetname (null) @orientation
0 @toggle 0 @items Coffee @bgcolor 0.75 0.75 0.75 1 @bdcolor 0.5 0.5
0.5 1 @textcolor 0 0 0 1 @hocolor 0.5 0.5 0.5 1 @secolor 0.35 0.35
0.35 1;
#N canvas 429 244 450 300 clink 0;
#X obj 33 85 c.patcherinfos;
#X obj 73 58 bng 15 250 50 0 empty empty empty 17 7 0 10 -262144 -1
-1;
#X obj 73 33 inlet;
#X obj 73 119 c.prepend set;
#X symbolatom 73 141 10 0 0 0 - - -, f 10;
#X msg 73 169 \; pd open @Coffee.pd \$1;
#X connect 0 1 3 0;
#X connect 1 0 4 0;
#X connect 2 0 1 0;
#X connect 3 0 4 0;
#X connect 4 0 5 0;
#X coords 0 300 1 299 70 25 0;
#X restore 310 -65 pd clink;
#X connect 2 0 19 0;
#X connect 5 0 17 0;
#X connect 6 0 21 0;
#X connect 7 0 17 0;
#X connect 8 0 17 0;
#X connect 16 0 17 0;
#X connect 17 0 18 0;
#X connect 18 0 15 0;
#X connect 19 0 20 0;
#X connect 20 0 10 0;
#X connect 21 0 22 0;
#X connect 22 0 11 0;
#X connect 24 0 25 0;
