#N canvas 190 26 1024 779 10;
#X obj -100 -132 cnv 40 552 40 empty empty c.bang 3 12 0 18 -228856
-33289 0;
#X text -97 -110 A bang... that's all.;
#X text 408 311 Chocolate by Pierre Guillot | CICM - Université Paris
8;
#X text -99 -88 c.bang do nothing more than vanilla bang for the moment...
;
#X obj 148 353 c.number~ @size 79 17 @fontname Helvetica @fontweight
normal @fontslant roman @fontsize 11 @receive (null) @send (null) @interval
50 @decimal 6 @bgcolor 0.75 0.75 0.75 1 @bdcolor 0.5 0.5 0.5 1 @textcolor
0 0 0 1;
#X msg 265 19 \; pd dsp 1;
#X msg 265 59 \; pd dsp 0;
#N canvas 0 22 665 459 (subpatch) 0;
#X array response 374520 float 2;
#X coords 0 1 374520 -1 200 140 1 0 0;
#X restore 361 17 graph;
#X obj 368 -21 soundfiler;
#X msg 388 -65 read -resize Cistern.wav response;
#X msg 408 -45 read -resize SmallRoom.wav response;
#X obj -28 367 dac~;
#X msg 575 -21;
#X msg 260 -55 set response;
#X msg 368 -84 read -resize Chapel.wav response;
#X obj 41 -4 c.gain~ @size 190 14 @fontname Helvetica @fontweight normal
@fontslant roman @fontsize 11 @receive (null) @send (null) @presetname
(null) @mode 0 @ramp 20 @bgcolor 0.75 0.75 0.75 1 @bdcolor 0.5 0.5
0.5 1 @kncolor 0.5 0.5 0.5 1;
#X obj 127 -45 nbx 5 14 -1e+37 1e+37 0 0 empty empty empty 0 -8 0 10
-262144 -1 -1 0 256;
#X obj 29 -27 *~ 1;
#X obj 33 78 c.fourierconvolve~ response 1 64 64;
#X obj 63 108 c.fourierconvolve~ response 1 128 128;
#X obj 54 304 *~ 1;
#X obj 87 133 c.fourierconvolve~ response 1 256 256;
#X obj 113 158 c.fourierconvolve~ response 1 512 512;
#X obj 143 188 c.fourierconvolve~ response 1 1024 1024;
#X obj 167 213 c.fourierconvolve~ response 1 2048 2048;
#X obj 193 238 c.fourierconvolve~ response 1 4096 4096;
#X obj 193 268 c.fourierconvolve~ response 1 8192 8192;
#X obj 248 353 c.number~ @size 79 17 @fontname Helvetica @fontweight
normal @fontslant roman @fontsize 11 @receive (null) @send (null) @interval
50 @decimal 6 @bgcolor 0.75 0.75 0.75 1 @bdcolor 0.5 0.5 0.5 1 @textcolor
0 0 0 1;
#X obj 377 345 delwrite~ zaza1 8000;
#X obj 193 408 c.fourierconvolve~ response 1 16384 32768;
#X obj 377 376 delread~ zaza1 371;
#X obj -11 51 c.timeconvolve~ response 0 64;
#X obj 22 -64 phasor~ 1;
#X obj 194 300 c.fourierconvolve~ response 1 16384 16384;
#X connect 8 0 13 0;
#X connect 9 0 8 0;
#X connect 10 0 8 0;
#X connect 12 0 8 0;
#X connect 13 0 18 0;
#X connect 13 0 19 0;
#X connect 13 0 21 0;
#X connect 13 0 22 0;
#X connect 13 0 23 0;
#X connect 13 0 24 0;
#X connect 13 0 25 0;
#X connect 13 0 26 0;
#X connect 13 0 33 0;
#X connect 14 0 8 0;
#X connect 15 0 18 0;
#X connect 15 0 19 0;
#X connect 15 0 21 0;
#X connect 15 0 23 0;
#X connect 15 0 24 0;
#X connect 15 0 25 0;
#X connect 15 0 26 0;
#X connect 15 0 28 0;
#X connect 15 0 31 0;
#X connect 15 0 33 0;
#X connect 16 0 17 1;
#X connect 17 0 15 0;
#X connect 18 0 20 0;
#X connect 19 0 20 0;
#X connect 21 0 20 0;
#X connect 22 0 20 0;
#X connect 23 0 20 0;
#X connect 24 0 20 0;
#X connect 25 0 20 0;
#X connect 26 0 20 0;
#X connect 26 0 4 0;
#X connect 30 0 29 0;
#X connect 31 0 20 0;
#X connect 32 0 17 0;
#X connect 33 0 27 0;
#X connect 33 0 11 0;
