#N canvas 407 330 894 331 10;
#X obj -100 -206 cnv 40 552 40 empty empty c.timeconvolve~Â  3 12 0
18 -228856 -33289 0;
#X msg 286 -147 \; pd dsp 1;
#X msg 286 -107 \; pd dsp 0;
#N canvas 0 22 665 459 (subpatch) 0;
#X array \$0-response 8192 float 2;
#X coords 0 1 8192 -1 200 140 1 0 0;
#X restore 361 -101 graph;
#X obj 80 35 dac~;
#X obj 591 -206 c.loadmess;
#X obj 590 5 pack;
#X obj 591 -182 t b b;
#X obj 590 -138 until;
#X obj 590 -117 f;
#X obj 617 -116 + 1;
#X obj 590 -67 random 10000;
#X obj 590 -43 / 5000;
#X obj 590 -19 - 1;
#X obj 590 29 tabwrite \$0-response;
#X obj 590 -94 t b f;
#X msg 632 -138 0;
#X obj 150 -92 symbol \$0-response;
#X obj 150 -67 c.prepend set;
#X obj 150 -116 bng 15 250 50 0 empty empty empty 17 7 0 10 -262144
-1 -1;
#X obj 80 -109 phasor~ 1;
#X msg 590 -159 8192;
#X obj 80 -39 c.timeconvolve~ \$0-response 0 8192;
#X text -16 83 Caramel by Pierre Guillot | CICM - Université Paris
8;
#X text -97 -184 Convolution in the time domain.;
#X text -99 -162 c.timeconvolve~ convolves a signal with a finite impulse
response from a array of samples. The maximum response size is 8192
;
#X text -98 -111 1st arg : The array name.;
#X text -98 -91 2nd arg : The offset of;
#X text -98 -81 samples in the;
#X text -98 -71 array.;
#X text -98 -41 samples to use.;
#X text -98 -51 3rd arg : The number of;
#X msg 511 97 read -resize Chapel.wav \$1;
#X obj 509 51 bng 15 250 50 0 empty empty empty 17 7 0 10 -262144 -1
-1;
#X obj 511 69 symbol \$0-response;
#X connect 5 0 7 0;
#X connect 6 0 14 0;
#X connect 7 0 21 0;
#X connect 7 1 16 0;
#X connect 8 0 9 0;
#X connect 9 0 10 0;
#X connect 9 0 15 0;
#X connect 10 0 9 1;
#X connect 11 0 12 0;
#X connect 12 0 13 0;
#X connect 13 0 6 0;
#X connect 15 0 11 0;
#X connect 15 1 6 1;
#X connect 16 0 9 1;
#X connect 17 0 18 0;
#X connect 18 0 22 0;
#X connect 19 0 17 0;
#X connect 20 0 22 0;
#X connect 21 0 8 0;
#X connect 22 0 4 0;
#X connect 22 0 4 1;
#X connect 33 0 34 0;
#X connect 34 0 32 0;
