#N canvas 224 50 848 680 10;
#X obj -40 -90 cnv 40 552 40 empty empty c.toggle 3 12 0 18 -228856
-33289 0;
#X text -37 -68 A toggle... that's all.;
#X text -39 -46 c.toggle is the chocolate counterpart of the vanilla
toggle.;
#X obj 152 86 c.voronoy @size 270 270 @fontname Helvetica @fontweight
normal @fontslant roman @fontsize 11 @receive (null) @send (null) @bgcolor
0.75 0.75 0.75 1 @bdcolor 0.5 0.5 0.5 1 @ptcolor 0.5 0.5 0.5 1 @decolor
0 0 0 1;
#X msg 156 20 1 -1 0.4 0.7 -0.5 0.3 0.9 0.7 0.4 0.1;
#X msg 126 -10 0 0 -0.5 1 -0.5 0 -1 -1;
#X msg 331 -14 1 -1 0.4 0.7 -0.5 0.3 0.9 0.7 0.4 0.1 0.4 0.8 -0.9 -0.7
0.1 0.6 -0.98 0.64 0.72 -0.3;
#X msg 406 40 0 0 -1 0.7 -0.8 -1 1 -0.9 1 0.6;
#X obj 494 345 list prepend;
#X obj 494 219 random 2000;
#X obj 585 219 random 2000;
#X obj 492 188 t b b;
#X obj 585 255 / 1000;
#X obj 585 282 - 1;
#X obj 494 253 / 1000;
#X obj 494 280 - 1;
#X obj 302 438 c.prepend set;
#X obj 500 89 bng 15 250 50 0 empty empty empty 17 7 0 10 -262144 -1
-1;
#X obj 494 407 list length;
#X obj 494 310 pack 0 0;
#X obj 493 153 until;
#X obj 494 366 t l l;
#X msg 302 473 0.859 0.652 -0.259 0.871 0.476 0.224 -0.283 0.72 -0.796
-0.665 0.223 -0.245 0.246 -0.412 0.886 -0.655;
#X obj 560 112 nbx 5 14 -1e+37 1e+37 0 0 empty empty empty 0 -8 0 10
-262144 -1 -1 0 256;
#X obj 557 137 t f f;
#X obj 585 162 * 2;
#X msg 505 116 20;
#X obj 495 430 sel 40;
#X connect 4 0 3 0;
#X connect 5 0 3 0;
#X connect 6 0 3 0;
#X connect 7 0 3 0;
#X connect 8 0 21 0;
#X connect 9 0 14 0;
#X connect 10 0 12 0;
#X connect 11 0 9 0;
#X connect 11 1 10 0;
#X connect 12 0 13 0;
#X connect 13 0 19 1;
#X connect 14 0 15 0;
#X connect 15 0 19 0;
#X connect 16 0 22 0;
#X connect 18 0 27 0;
#X connect 19 0 8 0;
#X connect 20 0 11 0;
#X connect 21 0 18 0;
#X connect 21 0 16 0;
#X connect 21 1 8 1;
#X connect 22 0 3 0;
#X connect 23 0 24 0;
#X connect 24 0 20 0;
#X connect 24 1 25 0;
#X connect 25 0 27 1;
#X connect 26 0 20 0;
#X connect 27 0 8 1;
