#N canvas 588 70 412 721 10;
#X obj -701 -1821 c.patcherinfos;
#X obj -701 -1838 loadbang;
#X obj -700 -1699 c.tab @size 398 36 @fontname Monaco @fontweight normal
@fontslant roman @fontsize 13 @receive (null) @send (null) @presetname
(null) @orientation 0 @toggle 1 @items Chocolate Caramel Coffee @bgcolor
0.75 0.75 0.75 1 @bdcolor 0.5 0.5 0.5 1 @textcolor 0 0 0 1 @hocolor
0.5 0.5 0.5 1 @secolor 0.35 0.35 0.35 1;
#X obj -687 -1220 c.help.pub;
#X obj -700 -1659 c.tab @size 398 371 @fontname Monaco @fontweight
normal @fontslant roman @fontsize 11 @receive (null) @send (null) @presetname
(null) @orientation 1 @toggle 0 @items c.bang c.blackboard c.breakpoints
c.colorpanel c.gain~ c.incdec c.knob c.menu c.meter~ c.number c.number~
c.plane c.preset c.radio c.scope~ c.slider c.tab c.toggle @bgcolor
0.75 0.75 0.75 1 @bdcolor 0.5 0.5 0.5 1 @textcolor 0 0 0 1 @hocolor
0.5 0.5 0.5 1 @secolor 0.35 0.35 0.35 1;
#X obj -670 -1693 c.loadmess 0;
#X obj -616 -1691 c.prepend append;
#X text -680 -1795 The Cream library is a set of objects made with
the CICM Wrapper developed to facilitate the creation of signal objects
and GUI and to improve user interactions. The GUI part of the library
is Chocolate \, the DSP part of the library is Caramel and the Patching/Data
part of the library is Coffee.;
#N canvas 108 132 741 435 sel.c.txt 0;
#X obj -556 -387 unpack s s;
#X msg -412 -521 clear;
#X obj -592 -600 inlet;
#X obj -499 -349 outlet;
#X obj -556 -443 c.prepend read;
#X obj -412 -485 outlet;
#X obj -556 -413 textfile;
#X obj -590 -530 until;
#X msg -573 -498 rewind;
#X obj -590 -572 t b b s b;
#X obj -556 -466 makefilename c.%s.txt;
#X obj -160 -293 list split 1;
#X obj -126 -273 list split 1;
#X obj -300 -573 inlet;
#X obj -92 -220 outlet;
#X obj -300 -551 route -1;
#X obj -92 -250 c.prepend 10 10;
#X obj -160 -351 textfile;
#X obj -267 -433 until;
#X msg -190 -456 rewind;
#X obj -256 -494 t f f b;
#X obj -160 -318 spigot 0;
#X obj -256 -349 f 0;
#X obj -225 -348 + 1;
#X obj -256 -325 ==;
#X msg -218 -408 0;
#X obj -267 -387 t b b;
#X obj -139 -416 c.loadmess;
#X msg -158 -394 read c.parts.txt;
#X obj -70 -467 c.prepend set;
#X msg -26 -424 0;
#X obj -256 -517 + 1;
#X obj -264 -459 + 1;
#X connect 0 1 3 0;
#X connect 1 0 5 0;
#X connect 2 0 9 0;
#X connect 4 0 6 0;
#X connect 6 0 0 0;
#X connect 6 1 7 1;
#X connect 7 0 6 0;
#X connect 8 0 6 0;
#X connect 9 0 7 0;
#X connect 9 1 8 0;
#X connect 9 2 1 0;
#X connect 9 2 10 0;
#X connect 10 0 4 0;
#X connect 11 1 12 0;
#X connect 12 1 16 0;
#X connect 13 0 15 0;
#X connect 15 1 31 0;
#X connect 16 0 14 0;
#X connect 17 0 21 0;
#X connect 18 0 26 0;
#X connect 19 0 17 0;
#X connect 20 0 32 0;
#X connect 20 1 24 1;
#X connect 20 1 25 0;
#X connect 20 2 19 0;
#X connect 21 0 11 0;
#X connect 22 0 23 0;
#X connect 22 0 24 0;
#X connect 23 0 22 1;
#X connect 24 0 21 1;
#X connect 25 0 22 1;
#X connect 26 0 17 0;
#X connect 26 1 22 0;
#X connect 27 0 28 0;
#X connect 28 0 17 0;
#X connect 29 0 30 0;
#X connect 31 0 20 0;
#X connect 32 0 18 0;
#X restore -524 -1686 pd sel.c.txt;
#X obj -700 -1284 c.blackboard @size 398 39 @fontname Monaco @fontweight
normal @fontslant roman @fontsize 11 @receive (null) @send (null) @chalkmode
0 @bgcolor 0.75 0.75 0.75 1 @bdcolor 0.5 0.5 0.5 1;
#X obj -470 -1690 c.prepend text;
#X msg -403 -1686 clear;
#X obj -440 -1686 t list b;
#N canvas 129 211 691 357 sel.c.text2 0;
#X obj -326 -135 list split 1;
#X obj -292 -115 list split 1;
#X obj -467 -385 inlet;
#X obj -258 -62 outlet;
#X obj -467 -363 route -1;
#X obj -258 -92 c.prepend 10 10;
#X obj -124 -163 outlet;
#X obj -328 -380 inlet;
#X obj -326 -223 c.prepend read;
#X obj -326 -193 textfile;
#X obj -326 -352 t s b;
#X obj -422 -286 until;
#X msg -356 -298 rewind;
#X obj -422 -336 t f f b;
#X obj -326 -160 spigot 0;
#X obj -422 -218 f 0;
#X obj -383 -217 + 1;
#X obj -422 -194 ==;
#X msg -384 -250 0;
#X obj -422 -310 + 1;
#X obj -433 -241 t b b;
#X obj -326 -246 makefilename c.%s.txt;
#X connect 0 1 1 0;
#X connect 1 1 5 0;
#X connect 2 0 4 0;
#X connect 4 1 13 0;
#X connect 5 0 3 0;
#X connect 7 0 10 0;
#X connect 8 0 9 0;
#X connect 9 0 14 0;
#X connect 10 0 21 0;
#X connect 10 1 6 0;
#X connect 11 0 20 0;
#X connect 12 0 9 0;
#X connect 13 0 19 0;
#X connect 13 1 17 1;
#X connect 13 1 18 0;
#X connect 13 2 12 0;
#X connect 13 2 6 0;
#X connect 14 0 0 0;
#X connect 15 0 16 0;
#X connect 15 0 17 0;
#X connect 16 0 15 1;
#X connect 17 0 14 1;
#X connect 18 0 15 1;
#X connect 19 0 11 0;
#X connect 20 0 9 0;
#X connect 20 1 15 0;
#X connect 21 0 8 0;
#X restore -441 -1509 pd sel.c.text2;
#X msg -466 -1468 clear;
#X obj -480 -1409 c.prepend text;
#X obj -701 -1838 c.help.header;
#N canvas 698 181 450 300 c.open.hel 0;
#X obj -259 -281 makefilename %s-help.pd;
#X obj -259 -248 pack s s;
#X obj -232 -321 c.patcherinfos;
#X obj -259 -342 t s b;
#X msg -259 -221 \; pd open \$1 \$2;
#X obj -192 -301 makefilename %s/helps;
#X obj -287 -407 inlet;
#X obj -287 -376 sel Tutorial_1;
#X obj -49 -248 pack s s;
#X obj -22 -321 c.patcherinfos;
#X msg -49 -221 \; pd open \$1 \$2;
#X msg -49 -272 Tutorial_1.pd;
#X obj -49 -342 t b b;
#X obj 18 -301 makefilename %s/tutorials;
#X connect 0 0 1 0;
#X connect 1 0 4 0;
#X connect 2 1 5 0;
#X connect 3 0 0 0;
#X connect 3 1 2 0;
#X connect 5 0 1 1;
#X connect 6 0 7 0;
#X connect 7 0 12 0;
#X connect 7 1 3 0;
#X connect 8 0 10 0;
#X connect 9 1 13 0;
#X connect 11 0 8 0;
#X connect 12 0 11 0;
#X connect 12 1 9 0;
#X connect 13 0 8 1;
#X restore -421 -1318 pd c.open.hel;
#X connect 0 0 16 0;
#X connect 1 0 0 0;
#X connect 2 1 8 0;
#X connect 2 1 13 1;
#X connect 2 2 8 1;
#X connect 4 1 17 0;
#X connect 4 2 13 0;
#X connect 5 0 2 0;
#X connect 6 0 4 0;
#X connect 8 0 6 0;
#X connect 8 1 4 0;
#X connect 8 2 12 0;
#X connect 10 0 9 0;
#X connect 11 0 9 0;
#X connect 12 0 10 0;
#X connect 12 1 11 0;
#X connect 13 0 15 0;
#X connect 13 1 14 0;
#X connect 14 0 9 0;
#X connect 15 0 9 0;
#X coords 0 -2.14748e+09 1 -2.14748e+09 100 60 0;
