#N canvas 172 263 899 504 10;
#X obj -19 -64 cnv 40 552 40 empty empty Caramel 3 12 0 18 -228856
-33289 0;
#X text -16 -42 A set of objects for those who like vanilla...;
#X text 264 -42 but can't stay awake;
#X text -18 -21 Coffee is a part of the Cicm Wrapper developed to facilitate
the creation of signal objects and GUI and to improve user interactions.
;
#X obj -2 63 c.freeverb~;
#X text -7 394 Caramel by Pierre Guillot | CICM - Université Paris
8;
#X obj 36 97 c.convolve~;
#X text 131 97 c.convolve~;
#X text 113 63 c.freeverb~;
